<svg width="503" height="461" viewBox="0 0 503 461" fill="none" xmlns="http://www.w3.org/2000/svg">
<g clip-path="url(#clip0_9_192)">
<path d="M75.6763 10.3248L75.2328 10.5726L75.0021 10.6965L74.938 10.73L74.5842 10.8539L74.2561 11.0011L73.9126 11.1585L73.6664 11.2669L73.4511 11.316L73.1486 11.3082L72.8615 11.2489L72.641 11.2747L72.4846 11.2824L72.1898 11.3573L71.8847 11.4321L71.6719 11.5483L71.4335 11.7367L71.3694 11.8374L71.2284 12.0258L71.113 12.2917L71.0156 12.5704L70.8926 12.8518L70.7618 13.0092L70.5721 13.1331L70.3439 13.2312L70.1876 13.2829L70.1132 13.3061L69.8517 13.3732L69.5467 13.3654L69.3826 13.3964L69.1775 13.43L69.0057 13.5126L68.9237 13.5952L68.8416 13.7036L68.834 13.9023L68.875 14.0262L68.9647 14.1501L69.0057 14.274V14.4392L68.957 14.5295L68.9237 14.6044L68.8673 14.6612L68.7596 14.7928L68.3751 15.0251L67.9546 15.3555L67.6188 15.6111L67.365 15.8176L67.1599 15.9828L66.9881 16.0989L66.9548 16.1221L66.742 16.3132L66.56 16.5196L66.4293 16.7261L66.2908 16.9662L66.1678 17.214L66.0268 17.4437L65.896 17.627L65.8063 17.8748L65.7909 18.0813L65.7166 18.262L65.6089 18.4452L65.5192 18.7343L65.4371 19.2299V19.3202L65.3064 19.6429L65.0603 19.8984L64.9039 19.9733L64.6911 20.1282L64.5501 20.3347L64.3963 20.5515L64.345 20.7322L64.263 20.9387L64.222 21.1865L64.1502 21.3775L63.9271 21.6898L63.9194 21.8137L63.9528 22.0615L64.0989 22.268L64.263 22.4822L64.3142 22.5648L64.3553 22.6242L64.3963 22.7894L64.3553 22.9959L64.2553 23.285L64.1989 23.4011L64.1399 23.4837L63.8451 23.9793L63.7297 24.1935L63.558 24.5652L63.3452 24.9782L63.1401 25.3912L63.0504 25.639L62.9683 25.8533L62.9273 26.0339L62.8607 26.1914L62.7555 26.416L62.7299 26.4805L62.5915 26.687L62.3864 26.9761L62.1633 27.1335L62.0249 27.2497L61.8762 27.3968L61.7711 27.5388L61.6788 27.7453L61.5814 27.8924L61.4583 28.1815L61.2379 28.7106L60.9994 29.1004L60.8354 29.3379L60.5406 29.7276L60.2201 30.1148L59.9073 30.3549L59.4895 30.6853L59.1869 30.8763L58.9408 31.0157L58.7768 31.057L58.6024 31.1473L58.5204 31.2299L58.3666 31.3796L58.3256 31.5525L58.2256 31.6842L58.1512 31.8003L57.9718 31.932L57.7334 32.1049L57.677 32.1643L57.4719 32.2701L57.2591 32.4766L57.0694 32.5928L56.9617 32.6341L56.7566 32.6418L56.6259 32.6676H56.5515L56.3387 32.807L56.2567 32.8664L56.2234 32.9077L56.0029 33.1477L55.7901 33.3955L55.585 33.8911L55.4543 34.188L55.4286 34.2525L55.2902 34.5003L55.2492 34.5829V34.6836L55.2799 34.8152L55.362 34.9391L55.485 34.9649L55.667 34.9313L55.8388 34.8901L56.0439 34.7326L56.2644 34.5932L56.3874 34.4513L56.5515 34.3119L56.7156 34.2293L56.8976 34.1802L56.9796 34.2215L57.0207 34.3454V34.4771L56.9207 34.7171L56.7899 34.9236L56.5284 35.2437L56.1823 35.5328L56.0106 35.6902L55.9696 35.7315L55.7081 35.8064L55.4209 35.8812L55.2158 35.9974L54.9518 36.1032L54.7057 36.2271L54.4929 36.3923L54.3365 36.542L54.2314 36.6737L54.075 36.7408L53.952 36.7821L53.8212 36.9369L53.7392 37.0789L53.6494 37.2854L53.5751 37.4325L53.4187 37.8972L53.329 38.1114L53.1982 38.2688L53.0649 38.434L52.9419 38.5579L52.8932 38.7644L52.8445 38.9296V39.0613L52.8188 39.26L52.706 39.3426L52.5727 39.4562L52.4009 39.5801L52.2292 39.7788L52.0164 39.9363L51.7703 40.1428L51.5985 40.2667L51.3268 40.4241L51.1883 40.5067L51.073 40.5816L50.6551 40.9017L50.5551 40.9765L50.0065 41.2656L49.4886 41.4902L49.0631 41.596L48.9631 41.645L48.7836 41.7535L48.4965 41.9032L48.153 42.0993L47.7325 42.2645L47.2249 42.4633L46.8814 42.7446L46.584 43.0182L46.4712 43.1318L46.1021 43.4312L45.8047 43.6455L45.5919 43.7849L45.4688 43.9268L45.4535 44.1566V44.2572L45.4458 44.3631V44.505L45.4278 44.6031L45.3125 44.7838L45.174 44.9825L45.092 45.2226L45.215 45.5117L45.2484 45.5452L45.4047 45.6924L45.5509 45.7595L45.6816 45.8498L45.9867 45.966L46.1508 46.0073L46.2738 46.1389L46.3559 46.3041L46.3969 46.5519V46.7171L46.4379 46.9313L46.4943 47.0759H130.231L130.631 45.4368L130.821 44.678L131 43.2402L130.451 43.1421L130.164 42.9847L124.724 39.8537L123.594 39.2265L121.927 38.2095L113.019 32.9722L108.901 30.7343L108.04 30.2723L107.455 29.9419L101.649 26.6638L101.108 26.3747L100.516 25.9927L98.2186 24.4569L97.1521 23.7393L95.2986 22.5003L86.6103 17.0824L81.8855 14.2147L78.8502 12.3226L75.6763 10.3248Z" fill="white" stroke="white" stroke-width="10"/>
<path d="M46.4943 45.0109L46.5199 45.0729L46.7738 45.5685L46.8558 45.7337L47.0686 46.0331L47.3736 46.6835L47.7659 47.4114L48.012 47.8322L48.1607 48.0232L48.3248 48.2039L48.5042 48.32L48.6606 48.3949L48.8247 48.5678L48.9964 48.8079L49.1041 49.0144L49.1785 49.2699L49.2502 49.5745L49.3323 49.8739L49.3502 50.1449L49.4323 50.3927L49.5066 50.6328L49.6784 50.9219L49.8168 51.1361L49.8424 51.1697L50.0475 51.4588L50.2449 51.815L50.5628 52.228L50.7448 52.6306L50.8602 53.0204L50.8679 53.3327L50.7782 53.5728L50.6961 53.7457L50.5141 53.9445L50.3911 54.0942L50.268 54.3497L50.1937 54.5562L50.1219 54.7059L49.9809 54.8453L49.8091 54.8788L49.645 54.8866L49.4323 54.8298L49.3656 54.7885L49.2682 54.7627L49.0554 54.6801H48.799L48.5529 54.7214L48.2991 54.7962L48.1684 54.8453L48.0453 55.0182L47.9556 55.2583L47.9633 55.4725L48.0453 55.679L48.1761 55.8855L48.3401 56.0584L48.5042 56.2572L48.6683 56.4714L48.7426 56.8431L48.7349 56.967V57.158L48.7273 57.2148L48.635 57.5039L48.5632 57.6872L48.3812 57.8859L48.2427 57.9918L48.1427 58.0924L48.0299 58.1983L47.8889 58.3222L47.8556 58.3635L47.7659 58.5622L47.6685 58.8023L47.6274 58.9675L47.5044 59.2643L47.2993 59.5947L47.0045 59.9173L46.8814 60.0335L46.6251 60.1729L46.3636 60.2297L46.1585 60.3871L46.0354 60.5523L45.8713 60.7253L45.756 60.9576L45.6252 61.1899L45.4868 61.3706L45.3945 61.4867L45.3637 61.528L45.2715 61.577H45.2407L45.0587 61.6029L44.8536 61.5512L44.5664 61.4686L44.5254 61.4532L44.2716 61.3706L43.9768 61.2802L43.682 61.2208L43.3846 61.1795L43.1795 61.1718L43.1385 61.1795L42.9257 61.2054L42.7539 61.3293L42.6309 61.4867L42.5489 61.6338L42.5001 61.799L42.4591 62.0468L42.3771 62.2636L42.254 62.5114L42.09 62.7592L41.8592 62.9064L41.6131 62.9967L41.2286 63.2445L40.9645 63.4768L40.8671 63.6343L40.8338 63.7814L40.9081 64.055L41.0235 64.2357L41.3516 64.5661L41.4337 64.659L41.5798 64.8061L41.6798 64.9558L41.8028 65.1701L41.8772 65.4179L41.8259 65.6244L41.6952 65.8231L41.6208 65.9961L41.59 66.1277L41.5567 66.2852L41.4824 66.4503L41.467 66.4994L41.3337 66.631L41.1619 66.8375L40.9901 67.1189L40.744 67.6325L40.58 68.1281L40.4569 68.6728L40.3826 69.0367L40.3749 69.1271L40.4569 69.4987L40.5466 69.7052L40.7364 69.8627L41.0235 70.0098L41.3439 70.0692L41.6875 70.1182L41.9413 70.1595L42.09 70.2834L42.1797 70.5803L42.1387 70.8281L42.0566 71.0836L41.8592 71.2746L41.6875 71.4475L41.4747 71.654L41.2516 71.8528L41.0389 72.1006L40.8927 72.2658L40.7697 72.5471L40.7107 72.702L40.6774 72.9188L40.6697 73.1253L40.7107 73.2905L40.8338 73.3809L40.9491 73.5538L41.0312 73.6441L41.1799 73.8687L41.2619 74.1578L41.3029 74.372L41.3439 74.7024L41.367 75.149L41.3593 75.3142L41.2696 75.562L41.1876 75.6601L41.1389 75.7168L41.0055 75.7427L40.8005 75.8253L40.6697 75.9079L40.6287 76.0731V76.2796L40.6877 76.437L40.7287 76.6254L40.7594 76.7416L40.9235 76.9894L41.0466 77.4024L41.1389 77.8231L41.2286 78.2206L41.2209 78.4013V78.551L41.1286 78.9382L41.0722 79.2118L41.0645 79.4183V79.5499L41.2517 79.9965L41.6131 80.3837L41.949 80.616L42.2284 80.6908L42.5232 80.7966L42.9027 80.856L43.2462 80.807L43.5743 80.6495L43.7871 80.4843L44.0255 80.3011L44.2383 80.1462L44.4203 80.0223L44.6664 79.8984L44.7972 79.8648L45.133 79.839L45.715 79.8984L46.2662 79.9887L46.3072 80.0042L46.8558 80.1875L47.2583 80.3604L47.5454 80.5747L47.7428 80.7553L47.8659 80.8973L48.1197 81.1787L48.5119 81.6149L48.9144 82.0614L49.1169 82.2602H106.661L106.799 81.9788L107.268 81.6071L107.604 81.4342L107.981 81.3516L108.573 81.269L108.778 81.0212L108.942 80.3114L109.073 79.4751L109.278 78.8969L109.442 78.3523V78.2284L109.401 77.4772L109.36 76.9403L109.442 76.2718L109.524 75.611L109.647 75.0664L109.901 74.4882L110.196 74.1062L110.573 73.8171L111.034 73.4867L111.665 73.3551L112.083 73.3964L112.552 73.066L112.757 72.6943L113.093 72.1909L113.47 71.6876L113.593 71.2746L113.634 70.9029L113.806 70.4822L114.182 70.1105L114.644 69.7285L114.898 69.2329L115.021 68.9025L115.144 68.5231L115.48 68.1927L115.857 67.9449L116.069 67.9036L116.49 67.7719H116.908L116.997 68.5643V68.8534L116.826 69.3568L116.449 69.935L116.069 70.5235L115.733 70.6887L115.357 71.3159L115.193 71.8115L115.028 72.2322L114.898 72.7278L114.816 73.0582V73.2312L114.946 73.3551L115.405 73.306L115.741 73.0995H116.333L116.71 73.1408H117.005L117.251 73.1821L117.546 73.0169L117.423 72.7278L117.087 72.4723L116.956 72.2245L117.169 71.8528L117.505 71.9354L118.179 72.1832L118.433 72.2658L118.679 72.3484L118.933 72.431L119.146 72.2658L118.933 71.8451L118.433 71.6386L118.097 71.4734L117.884 71.143L118.22 70.9778H118.638L119.097 70.6371L119.179 70.1415L119.31 69.8524L119.515 69.762H119.984L120.23 69.7207L120.484 69.3077L120.697 68.9696L120.861 68.8457L121.238 68.5153L121.32 68.3501L121.453 68.0946L121.976 68.1927L121.986 68.1436L122.166 67.0956L122.453 65.3095L122.684 64.2357L122.707 64.104L122.83 63.4768L122.912 63.0225L123.117 62.6173L123.422 62.2043L123.773 61.528L124.355 60.4697L124.717 59.8167L124.84 59.6024L125.38 58.6448L125.85 57.7362L126.26 56.7709L126.365 56.5308L127.308 54.3161L128.18 52.0111L128.293 51.673L128.736 50.3927L129.146 49.2776L129.426 48.1961L129.903 46.3635L130.172 45.2484L130.231 45.0109H46.4943Z" fill="white" stroke="white" stroke-width="10"/>
<path d="M49.1169 80.1953L49.2092 80.2856L49.4246 80.5334L49.7194 80.8225L49.8578 81.1038L49.9245 81.4497L49.9732 81.7388L49.9322 82.1518V82.5312L49.8911 82.872V83.4398L49.9322 83.7392L49.9655 83.9122L49.9809 84.1187L50.0142 84.8698V85.6209L50.0475 86.1165L50.0296 86.4056L49.9399 86.785L49.8988 86.9915L49.7527 87.6368L49.6861 87.9337L49.5963 88.1892L49.5143 88.4783L49.5066 88.7261L49.4553 88.9739L49.4476 89.1081L49.4733 89.2733L49.5143 89.5702L49.5963 89.8928L49.7117 90.1483L49.8091 90.4297L49.8835 90.6775L49.8988 90.7265V90.8504L49.9809 91.2634L50.0475 91.6506L50.1219 91.9061L50.186 92.0817L50.368 92.2056L50.5731 92.3785L50.7372 92.4275L50.9833 92.5592L51.2037 92.7166L51.3935 92.9076L51.5575 93.0315L51.8113 93.238L52.0985 93.3774L52.3446 93.4678L52.5574 93.4755L52.8932 93.4033L53.106 93.3284L53.4751 93.2123L53.9366 93.0058L54.1314 92.949L54.3365 92.9077L54.5339 92.8819H54.5929L54.7723 92.9154L55.0518 92.998L55.321 93.171L55.4953 93.2535L55.6594 93.3361L55.9619 93.5013L56.1003 93.5762L56.3311 93.7156L56.5438 93.8653L56.5772 93.8988L56.7489 94.0873L56.8643 94.3196L57.0027 94.5416L57.1437 94.8229L57.2899 95.1378L57.4719 95.5405L57.6513 95.9638L57.8898 96.7485L58.0538 97.5151L58.1282 98.1604L58.2333 98.7463L58.3076 99.0354L58.4794 99.3245L58.7588 99.6214L58.9896 99.9027L59.1613 100.117L59.3254 100.323L59.833 100.902L60.1124 101.142L60.3021 101.333L60.3432 101.348L60.597 101.506L60.8841 101.596L61.1379 101.645L61.343 101.694L61.5148 101.735L61.7711 101.859L61.9249 101.919L62.13 102.092L62.3044 102.215L62.4915 102.339L62.8273 102.778L63.1888 103.214L63.4529 103.563L63.6323 103.793L63.7477 103.935L64.0758 104.52L64.2399 104.9L64.4194 105.388L64.5424 105.824L64.6732 106.18L64.8296 106.485L64.9193 106.807L65.0936 107.089L65.2987 107.427L65.4295 107.675L65.5346 107.806L65.5602 107.84L65.6986 107.982L65.855 108.046L66.3549 108.343L66.8574 108.684L67.1522 108.831L67.4958 108.981L67.8726 109.161L68.17 109.334L68.5058 109.559L68.5469 109.582L68.9237 109.822L69.3339 110.171L69.5467 110.284L69.8261 110.558L69.9825 110.697L70.0645 110.79L70.2286 111.028L70.3927 111.327L70.5081 111.575L70.6311 111.872L70.7772 112.161L70.949 112.409L71.031 112.615L71.0567 112.829L71.1464 113.085L71.2054 113.235L71.3284 113.449L71.5002 113.606L71.7053 113.779L71.877 113.903L72.0411 113.986L72.3359 114.11L72.4103 114.151L72.5487 114.324L72.7307 114.497L72.7794 114.548L73.0256 114.755L73.305 115.116L73.5178 115.48L73.6562 115.878L73.6742 116.389L73.5511 116.704L73.5178 116.768L73.346 117.14L73.0538 117.445H122.701L122.755 117.233L122.889 116.572L123.135 115.612L123.217 115.15L123.258 114.654L123.094 114.406L122.878 114.365L122.419 114.613L121.961 114.778L121.371 114.696L120.738 114.448L120.271 113.993L120.066 113.787L120.017 113.539L120.189 113.201L120.566 113.284L120.902 113.58L121.115 113.746L121.494 113.704L121.658 113.408L121.748 113.201H122.084L122.289 113.49L122.46 113.655L122.919 113.862L123.258 113.821L123.553 113.655L123.717 112.946L124.053 112.161L124.265 111.534V110.615L124.258 109.995L124.47 109.409L124.634 109.038L124.929 108.452L125.268 107.535L125.391 106.916L125.603 106.165L125.768 105.122L125.727 104.379L125.678 103.875L125.719 102.959L125.891 102.339L126.226 101.753L126.391 100.969L126.432 100.796L126.514 100.3L126.342 99.4226V98.3824L126.465 97.3912L126.547 96.6401V95.9303L126.588 95.3108L126.506 95.1043L126.465 94.9726L126.293 94.5183L126.252 93.8988L126.211 93.269L126.037 92.567L125.955 91.7745L125.947 91.2712L125.742 90.9821L125.611 90.4865L125.357 89.7354L125.152 89.1572L124.939 88.7855L124.47 88.1583L124.265 88.0344L123.888 87.7866L123.676 87.6214L123.34 87.7453L123.124 87.9105V88.1583L123.471 88.3725L123.635 88.7855L123.676 89.0746V89.4876L123.724 89.9909L124.183 90.0735H124.478L124.683 90.0322L124.98 90.3213V90.6517L124.816 90.9898V91.2789L125.193 92.2288L125.66 93.269L125.873 93.8163V94.2292L125.955 94.8074V95.0217L126.006 95.3108L126.088 95.6825V96.0541L126.129 96.8879L126.219 97.4738L126.088 98.2172L126.006 98.7618L125.842 99.34L125.545 99.9698H125.25L124.955 99.9285L124.709 100.094L124.791 100.473L124.627 100.721L124.578 100.845L124.414 101.134L124.078 101.051L123.996 100.845L123.699 100.762L123.486 101.051L123.363 101.307L123.24 101.431H122.986L122.855 101.266V100.969L123.027 100.638L122.896 100.267L122.691 99.9776L122.642 99.722H122.937L123.322 99.8459L123.863 99.6394L123.986 99.3503L123.822 99.1025L124.16 98.8031L124.701 98.5553L125.119 98.1836L125.291 97.7216L125.332 97.1434L125.25 96.8879L124.824 96.7227L124.447 96.5575L124.068 96.4336L123.519 96.3923L123.142 96.6478L122.724 96.7304L122.427 96.9369L122.222 97.399L122.009 97.4816L121.509 97.5229H121.297L120.879 97.8532L120.54 98.1114L120.286 98.4418L119.951 98.607L119.656 98.4418L119.574 98.0288L119.738 97.7293L120.41 97.3164L120.786 96.986L121.166 96.8543L121.591 96.7304L121.714 96.4826L121.927 96.2761L122.214 96.1445L122.427 96.1032L122.766 95.8141L123.06 95.5663L123.224 95.3598L123.601 95.1869L123.937 95.3521L124.447 95.4347L124.611 95.6902L124.783 95.8141L124.996 96.0206L125.119 96.1858H125.373L125.414 95.8477L125.332 95.3934L125.283 94.8565L125.242 94.4357L124.906 94.064L124.652 93.6511L124.355 93.2277L123.765 92.9799L122.255 92.7838L121.584 92.6599L121.156 92.4121L120.615 92.3295L119.984 92.1643L119.648 91.8649L119.015 91.4932L118.548 91.0802L117.751 90.5846L116.784 90.2129L116.11 90.089L115.733 89.7999L115.226 89.4205L114.685 89.0901H114.298L114.175 89.1314L113.798 89.5934H113.167L112.411 89.4695L111.821 88.9739L111.485 88.7261L111.106 89.1804L110.647 90.0993L109.763 90.644L109.26 90.6853L109.424 90.5201L109.506 90.2232L109.383 89.8515L108.835 89.4385L108.376 89.3146L107.825 89.1495L106.899 88.6435L106.102 88.2305L105.512 87.9414L105.053 86.9838L105.005 86.4469L103.83 85.5306L103.025 85.2828L102.313 85.5384L101.895 86.4134L101.649 87.0742L101.354 87.4149L100.303 87.5388L99.7542 87.4149L99.3747 87.2497L99.8772 86.8264L100.295 86.5373L100.885 86.2069L101.303 85.7861L101.813 85.2493L101.977 84.7872L102.231 84.4568L102.649 84.3742H103.2L103.871 84.622L104.33 84.7872L104.625 84.9937L104.881 85.4067L105.087 85.6545L105.422 85.6958L105.635 85.2828V84.8698L105.594 84.5317L105.676 84.2426L105.717 83.9122L105.84 83.6154L106.012 83.285L106.258 82.9959L106.43 82.6552L106.471 82.3248L106.34 81.9118L106.258 81.3258L106.34 80.8715L106.512 80.4999L106.661 80.1953L49.1169 80.1953Z" fill="white" stroke="white" stroke-width="10"/>
<path d="M73.0537 115.38L73.0178 115.416L72.6717 115.694L72.3769 115.934L72.0744 116.133L71.8616 116.2H71.6309L71.3104 116.208L70.9746 116.249L70.7695 116.324L70.7208 116.34L70.4491 116.456L70.1953 116.629L69.9902 116.82L69.7774 116.975L69.6056 117.14L69.5646 117.166L69.3903 117.297L69.2185 117.38L69.0211 117.414H68.8083L68.7596 117.398L68.5468 117.357L68.3084 117.29L67.9239 117.091L67.8905 117.075L67.5034 116.918L67.2086 116.835H66.9215L66.6677 116.918L66.4549 117.001L66.2831 117.166L66.1267 117.38L65.9627 117.654L65.8806 117.966L65.7396 118.296L65.6909 118.668L65.6089 118.957L65.4525 119.164L65.2397 119.339L64.9859 119.504L64.6911 119.651L64.486 119.801L64.3142 119.959L64.1655 120.139L64.0502 120.32L63.9348 120.495L63.7707 120.668L63.64 120.792L63.3862 120.908L63.1478 121.014L62.8863 121.123L62.6325 121.254L62.3197 121.37L61.9429 121.494L61.607 121.618L61.384 121.716L61.1302 121.791L60.8354 121.866L60.5816 121.949L60.3252 122.024L60.0714 122.047L59.6048 122.08L59.3664 122.073H59.269L58.9306 122.147L58.6024 122.336L57.9307 122.79L57.0693 123.361L56.5438 123.624L56.1182 123.882L56.0106 123.972L55.8234 124.13L55.5363 124.378L55.2799 124.574L55.1082 124.772L54.7569 125.178L54.5672 125.418L54.4929 125.508L54.2314 125.748L53.9263 125.978L53.8955 126.004L53.5905 126.226L53.3623 126.391L53.1982 126.492L52.7624 126.706L52.3112 126.856L51.9677 126.969L51.6293 127.085L51.3268 127.243L51.073 127.4L50.9089 127.581L50.6859 127.813L50.5884 128.012L50.409 128.291L50.3269 128.58L50.2039 128.838L50.0706 129.086L49.9475 129.333L49.7014 129.604L49.4476 129.901L49.1451 130.167L48.8169 130.43L48.3478 130.663L47.7992 130.828L47.2582 131.001L46.9634 131.099L46.4533 131.29L45.8867 131.654L45.5021 131.935L45.3714 132.026L45.2971 132.108L45.0253 132.372L44.8202 132.619L44.7228 132.826L44.6151 133.107L44.5844 133.329L44.5254 133.66L44.5587 134.023L44.592 134.354L44.6151 134.733L44.6895 135.115L44.7638 135.487L44.8382 135.743L44.9535 136.073L45.0253 136.328L45.0663 136.576L45.0586 136.948L45.0176 137.229L44.9945 137.361L44.9125 137.733L44.7792 138.03L44.5741 138.36L44.369 138.634L44.3203 138.69L44.0332 138.972L43.7717 139.163L43.7307 139.178L43.5076 139.235L43.1487 139.318L42.6642 139.336L42.1233 139.318L41.631 139.261L41.3337 139.276L41.1875 139.302L41.1132 139.31L40.8748 139.4L40.7286 139.516L40.6543 139.558L40.5133 139.658L40.4569 139.7L40.3338 139.888L39.816 140.368L39.3494 140.763L39.2597 140.822L38.7418 141.145L37.9701 141.483L37.119 141.788L36.6268 141.904L36.1243 142.002L35.6167 142.152L35.1578 142.276L34.7476 142.358L34.3297 142.407L33.8529 142.441L33.1889 142.332L32.507 142.201L31.9994 142.152H31.5815L31.1611 142.185L30.8252 142.276L30.5304 142.366L30.4074 142.415L30.0638 142.572L29.7254 142.771L29.3075 143.027L28.7666 143.447L28.3 143.943L27.0925 144.934L25.0673 146.455L25.6979 147.025L25.3621 147.19L24.6904 147.479L24.3212 147.694L24.27 147.727L23.9008 147.934L23.8111 148.024L23.5983 148.23L23.0907 148.685L22.5882 149.229L22.3344 149.477L22.1703 149.725L21.9986 149.808L21.8345 149.973L21.7038 150.148L21.6217 150.396L21.4987 150.644L21.4089 150.892L21.2859 151.271L21.1218 151.643L20.9475 151.973L20.8244 152.262L20.6526 152.6L20.6424 152.629H112.726L112.601 152.608L111.978 152.526L111.639 152.443L111.344 152.36L111.255 151.906L111.296 151.534V151.114L111.337 150.866V150.701L111.419 150.37L111.591 150.197L111.673 149.991L111.844 149.743L111.967 149.578V149.371L111.755 149.074L111.632 148.827L111.46 148.414L111.755 148.083L112.008 147.825L112.388 147.495L112.552 146.826L112.511 146.372L112.716 145.752L113.347 145.456L113.772 145.332L113.682 144.96L113.347 144.877L113.011 144.919L112.806 144.836L112.798 144.547L113.134 144.333L113.6 144.209L114.018 144.002L114.275 143.582L114.48 142.962L114.521 142.591L114.652 142.25L114.816 142.126L115.151 142.043L115.487 141.919L115.7 141.713L115.446 141.375L115.192 141.292L114.775 141.251L114.48 141.341H114.141L113.847 141.259L113.682 141.217L113.593 141.093L113.675 140.755L113.847 140.714L114.141 140.673H114.685L114.939 140.631L115.11 140.301L115.062 140.004L115.021 139.467L115.192 138.972L115.398 138.303L115.815 137.552L116.069 137.056L116.326 136.716L116.702 136.385L116.908 136.261L117.161 136.138L117.325 135.972V135.675L117.202 135.51L116.949 135.428L116.572 135.469H116.11L115.562 135.477L115.054 135.435L114.552 135.559L114.298 135.477L114.003 135.27L113.626 135.022L113.29 134.684L113.034 134.56L112.575 134.437H112.28L111.903 134.486H111.773L111.608 134.362V133.9L111.567 133.734L112.239 133.693H112.526L112.821 133.611L113.116 133.52L113.454 133.776L113.626 133.941L114.085 134.354L114.511 134.437L115.013 134.519L115.349 134.602L115.603 134.56L115.856 134.313L115.98 134.14L116.192 134.098L116.49 134.14L116.695 133.892L116.818 133.52L116.859 133.223L116.949 133.058L116.908 132.934L116.818 132.686L116.777 132.521L116.949 132.356L117.072 131.894L117.236 131.564V131.44L117.154 131.275L116.9 131.109L116.736 130.903L116.602 130.769L116.643 130.562L116.859 130.397L116.9 130.232V130.025L116.777 129.943L116.52 129.777L116.308 129.901L116.144 130.108L115.767 130.232L115.259 130.067L115.003 129.901L114.88 129.571L115.044 129.109L115.218 128.944L115.3 128.779L115.677 128.861L116.054 128.985H116.431L116.561 128.82L116.808 128.572L116.982 128.696L117.195 128.779L117.441 128.696L117.572 128.358L117.4 128.11L117.146 127.904L116.643 127.738H115.8L115.595 127.697L115.505 127.449L115.923 126.905L115.759 126.698L115.382 126.368L115.208 126.244L115.167 126.079L115.423 125.831H115.759L116.005 126.079L116.3 126.492L116.636 126.739L116.89 126.863L117.187 126.946L117.564 126.822L117.818 127.028L117.9 127.4L118.071 127.656L118.366 127.607L118.828 127.565L119.041 126.946L118.951 126.484L119.54 126.03L119.712 125.74L119.794 125.235L119.835 125.069L119.794 124.698L119.328 124.615L118.735 124.739L118.277 124.945L117.818 125.121L117.646 124.863H117.228L116.808 124.956L116.554 124.749L116.341 124.491L115.923 124.45L115.669 124.202L115.71 123.83L116.169 123.624L116.554 124.037L117.31 124.161L117.859 124.243L118.359 124.409L118.776 124.243L119.115 124.112L119.54 123.823L119.787 123.657L120.122 123.41L120.376 123.237L120.927 123.361L121.009 123.402L120.968 123.616L120.845 123.864L120.715 124.318L120.551 124.78V125.235L120.592 125.771V126.732L120.64 127.07L120.551 127.731L120.427 128.102L120.304 128.482L120.048 129.06L119.966 129.439L119.761 130.1L119.72 130.727L119.589 131.306L119.466 131.894L119.261 132.514L118.966 132.769L118.794 132.934L118.835 133.265L118.966 133.471L119.22 133.719L119.384 134.098L119.425 134.511L119.343 135.007L119.22 135.469L119.007 135.841L118.884 136.13L118.761 136.385L118.638 137.087L118.548 137.8L118.466 138.419L118.384 139.005L118.343 139.377V140.045L118.384 140.458L118.351 141.127L118.22 141.953L118.097 142.663L118.056 143.365L118.097 144.16L118.105 144.994V145.324L117.892 145.91L117.638 146.529L117.515 146.819V147.074L117.474 147.487L117.605 147.9L117.728 148.23V148.61L117.523 148.94L117.269 148.899L116.972 148.775L116.8 148.899L116.759 149.064L116.718 149.322H116.931L117.228 149.353L117.392 149.487L117.605 149.777L117.859 149.735L117.941 149.694L117.982 149.477L118.154 149.229L118.236 148.899L118.359 148.486L118.441 147.983V146.406L118.523 145.737L118.646 145.283L118.776 144.911L118.9 144.16V143.489L118.982 142.993L119.105 142.242L119.31 141.499L119.402 140.789L119.351 140.038L119.31 139.212L119.515 137.8L119.556 136.674L119.73 135.882L119.935 134.759L120.058 133.884L120.23 133.265L120.394 132.514L120.599 131.553L120.722 129.894L121.058 128.564L121.017 127.731L120.976 127.276L121.14 126.36L121.304 125.895L121.476 125.276L121.64 124.855L121.935 124.153L122.099 123.608L122.273 122.989L122.437 122.155L122.478 121.618L122.437 121.032V120.578L122.304 120.372L122.263 120.33L121.968 120.155L121.379 120.041L120.622 120.165L120.033 120.578L119.492 120.751L118.818 120.503L118.392 120.462L117.892 119.917L117.761 119.339L117.597 118.214L117.72 117.966L117.884 117.842L117.974 118.131L118.138 118.585L118.433 119.174L118.818 119.422L119.023 119.669L119.279 119.876L119.697 119.793L120.286 119.494L120.745 119.246L120.92 119.122L121.125 119.205L121.42 119.329L121.968 119.37L122.386 118.908L122.427 118.041V117.166L122.509 116.126L122.701 115.38L73.0537 115.38ZM118.5 129.068L118.407 129.233L118.366 129.522L118.325 129.687L118.407 129.894L118.664 130.017L118.794 129.811V129.563L118.705 129.315L118.623 129.068H118.5ZM118.418 133.389L118.336 133.512V133.768L118.212 134.057L118.295 134.346L118.466 134.387L118.548 134.429L118.671 134.305V134.057L118.712 133.802L118.548 133.43L118.418 133.389ZM115.833 146.909L115.751 147.115L115.792 147.239L115.874 147.322L115.964 147.528L116.087 147.776L116.21 148.032L116.464 148.197L116.636 148.321L116.89 148.279L116.931 148.073L116.841 147.776L116.677 147.363L116.423 147.198L116.046 146.95L115.833 146.909ZM114.913 149.859L114.659 149.95L114.618 149.991L114.659 150.156L114.618 150.239L114.659 150.362L114.831 150.404H115.085L115.464 150.28L115.628 150.148V149.983L115.464 149.9L115.167 149.859H114.913ZM117.228 150.396L117.013 150.61L116.767 151.023L116.513 151.643L116.39 152.394L116.315 152.629H116.897L117.105 152.27L117.31 151.684L117.359 151.23L117.4 150.685L117.228 150.396Z" fill="white" stroke="white" stroke-width="10"/>
<path d="M20.6424 150.564L20.5706 150.783L20.5296 151.072L20.4886 151.32L20.4066 151.7V151.947L20.3655 152.113L20.3168 152.236L20.2348 152.36H20.0297L19.8169 152.319L19.7349 152.278L19.6041 152.319L19.5221 152.484L19.4811 152.649L19.2914 153.021L19.1017 153.401L19.0119 153.535L18.7325 153.806L18.553 153.948L18.43 154.154L18.348 154.402L18.3069 154.732L18.2659 155.071L18.2249 155.442L18.1762 155.649L18.1352 156.02L18.0942 156.268L17.9711 156.524L17.7993 156.772L17.6353 156.978L17.4609 157.185L17.2969 157.35L17.1328 157.523L17.002 157.729L16.879 157.894L16.7969 158.101L16.6662 158.266L16.5842 158.349L16.5431 158.431L16.2893 158.597L15.9945 158.728L15.7792 158.893L15.6151 159.059L15.492 159.224L15.3613 159.348L15.1562 159.513L14.9844 159.719L14.8614 159.977L14.7127 160.421L14.6486 160.597L14.6896 161.018L14.8204 161.588L14.9434 162.174L14.9921 162.332L15.0331 162.471L15.1562 162.677L15.41 162.925L15.7484 163.132L15.9125 163.256L16.0843 163.297L16.2483 163.338L16.3791 163.462L16.4201 163.586V163.718L16.5431 163.883L16.6329 164.048L16.7559 164.172L16.9277 164.296L17.5199 164.461L17.766 164.668L17.9378 164.874L18.0608 165.171L18.1018 165.46L18.0608 165.79L17.8557 166.245L17.7737 166.544L17.643 166.792L17.5122 167.014L17.3891 167.205L17.2251 167.411L16.9687 167.667L16.6739 167.915L16.5508 168.08L16.5098 168.328L16.5508 168.452L16.6329 168.617L16.7816 168.715L16.8867 168.79L16.9277 168.872V169.203L16.8867 169.657L16.8046 169.995V170.367L16.8457 170.491L16.8046 170.697L16.7226 170.904L16.6816 171.028L16.6406 171.283L16.6816 171.49L16.7226 171.572L16.8867 172.068L16.7559 172.143L16.6406 172.21L16.5098 172.274L15.7382 172.316L14.9768 172.349H14.4358L14.3025 172.638L14.2128 172.845L14.0667 173.374L14 173.629V173.96L14.3692 174.804L14.9434 175.661L15.1639 175.942L15.7971 176.644L16.3868 176.273H16.9379L17.2738 176.141L17.7814 176.182L18.2403 176.562L18.7915 177.099L19.0453 177.264L19.6349 177.512L20.3912 178.304L21.2756 179.213L21.6961 180.049L21.9909 180.8L22.4985 181.254L22.8343 181.461L23.2548 181.832L23.5906 182.418L24.0982 182.707L24.5571 182.542L25.1493 182.336L25.4031 182.245L25.2724 182.584L25.3621 182.997L25.78 183.286V183.706L26.0748 184.119L26.1568 185.284L26.2902 185.531L26.667 185.697L27.0028 185.986L27.3797 186.409L27.9719 187.028L28.1437 187.276H28.6026L28.7743 186.987L28.8564 186.574L28.9794 186.533L29.1102 186.44L29.8665 186.564L30.4151 186.781L30.6202 187.276L30.6612 187.772L30.6689 187.816H85.2414L85.4054 187.465L85.5695 187.127L85.8233 187.003L86.3232 187.333L86.6181 187.506L87.0462 187.457L87.0872 186.631L87.423 186.169L87.7102 185.962L87.8819 184.922L87.964 184.303L88.6792 183.962L88.933 183.921L89.7278 183.962L90.1969 184.21L90.2789 184.416L90.32 184.963L90.2789 185.17V185.294L89.8175 185.838L89.3509 186.086L89.5637 186.334H89.7765L89.6944 186.664L89.6457 186.706L89.4406 186.92L89.2689 187.085L89.0228 187.292L88.81 187.416L88.4331 187.622L88.1357 187.746L88.1255 187.816H91.5326L92.3453 187.49L92.9759 187.243L93.7322 186.788L94.609 186.202L95.496 185.655L95.9549 185.284L95.9139 185.16V185.077L95.8728 184.871L95.8318 184.705L95.7498 184.409L95.6601 184.078L95.496 183.913L95.2422 183.872L94.7807 183.789L94.691 183.706L94.732 183.541L94.8217 183.335L94.732 183.046L94.5679 182.914L94.1424 182.831L93.9783 182.839H93.8963L93.8476 182.666L93.9373 182.418V182.171L93.5502 181.923L92.7554 181.675L92.0427 181.758L91.3685 181.964L90.9506 182.344L90.9429 181.386L90.7378 180.346L90.984 180.057L92.0325 179.718L92.3299 179.14L92.3709 177.726L92.6657 177.222L93.2143 177.264L93.4194 176.851L93.3374 176.265L93.5015 176.058L93.8783 176.1L93.9706 176.438L94.6423 176.513L94.8474 176.554V176.637L94.7653 176.975L94.9781 177.594L95.2729 178.056L95.4883 178.387L95.9062 178.717L96.242 178.469L96.8317 178.09L96.4471 177.305L96.1523 176.884L96.0292 176.389L96.1933 176.058H96.6189L96.7419 175.72L96.3241 174.977L95.8575 174.936L95.7344 174.646L96.1113 174.184L96.824 174.267L96.9957 174.688L97.4982 174.812L97.752 174.473L97.5392 173.895L96.4471 172.853L96.1036 172.274L96.1446 171.523L95.4293 170.739L95.4704 169.781V169.492L95.8062 169.368L95.5114 168.575L95.4293 167.997L95.2576 167.411L95.5524 167.287L96.1446 167.659L96.5625 167.948L96.6035 168.575L96.7342 168.947L97.1111 168.906L97.611 168.865L98.375 168.947L99.0056 169.071L98.8749 168.485L99.1287 168.237L99.5901 168.444L99.6389 168.857L100.311 168.981L100.892 168.65L101.444 169.105L101.91 169.394L101.78 169.649L101.697 169.897L101.992 170.186L102.074 170.393L101.738 170.475L101.615 170.599L101.656 170.937L101.615 171.226L101.533 171.557L101.615 171.639L101.697 171.763L102.164 171.433H102.667L103.133 171.557V171.053L103.338 170.764L103.887 170.186L103.715 169.848L103.674 169.476L103.797 169.187L103.338 168.774L102.79 168.568L102.451 168.351L102.279 168.021L102.115 167.855L101.78 167.773L101.697 167.401L101.649 167.153L101.362 166.947L101.108 166.691L101.016 166.319L101.057 165.783L101.149 165.527H101.395L101.567 165.824L101.862 165.907L102.026 165.568L102.108 165.321L102.156 165.114L102.533 164.949L102.872 164.908L102.913 164.446L102.995 163.867L103.159 163.447L103.584 163.199L103.83 163.034L103.961 162.992L104.125 163.199L104.338 163.571H104.553L104.594 163.199L104.502 162.827L104.584 162.61L105.094 162.445L105.266 162.61L105.512 162.91L105.938 162.858L106.184 162.776L106.358 162.61L106.225 162.321L106.061 162.032L106.102 161.777L106.143 161.653L106.44 161.364L106.563 161.116V160.654L106.858 160.744L107.153 160.695L107.194 160.612L107.022 160.282L106.94 159.621L107.063 159.407L107.235 159.324L107.317 159.407L107.612 159.49L108.122 159.324L108.327 159.118L108.622 159.159L108.835 159.283L108.999 159.242L109.212 158.911L109.253 158.821L109.335 158.408L109.711 158.119L109.752 157.871L109.711 157.531L109.886 157.407L110.009 157.2L110.222 156.952L110.722 156.87L111.221 156.532L111.516 156.366L111.732 156.201L111.691 156.036L111.393 155.953L111.139 155.912L111.057 155.83L111.18 155.491L111.303 155.285L111.475 154.954L111.978 154.707L112.149 154.616V154.121L112.273 153.749L112.485 153.708L112.862 153.873L113.157 153.832L113.239 153.494L113.321 153.37L113.536 153.246L113.659 153.081L113.7 152.915L113.239 152.791H112.821L112.608 152.75L112.396 152.668L112.314 152.502L112.19 152.337V152.172L112.526 152.162L112.772 152.203H112.944L113.239 152.162L113.28 151.914L113.108 151.707L113.026 151.501L113.149 150.956V150.75L113.108 150.626L112.726 150.564L20.6424 150.564ZM116.315 150.564L116.136 151.121L115.636 151.493L115.341 151.534L115.126 151.576L115.003 151.749V151.914L115.085 152.162L115.126 152.327L115.259 152.657L115.218 152.998L115.095 153.411L114.921 153.783L114.716 154.03L114.503 154.286L114.249 154.699V155.112L114.208 155.367L113.962 155.533L113.708 155.987L113.536 156.449L113.372 156.738L113.034 156.986L112.78 157.192L112.616 157.365L112.444 157.613L112.321 158.026L112.108 158.315L111.821 158.697L111.65 159.069L111.568 159.49L111.526 159.779L111.444 160.192L111.27 160.563L111.024 160.943L110.688 161.604L110.352 162.107L109.975 162.858L109.722 163.271L109.465 163.601L109.383 163.942L109.342 164.19L109.219 164.438L108.924 164.562L108.63 164.727L108.424 164.941L108.212 165.354L108.089 165.643L107.958 166.015L107.794 166.353L107.414 166.725L107.202 166.849V167.055L107.161 167.352L106.997 168.013L106.784 168.351L106.53 168.516L106.153 168.599L106.071 168.681L106.03 168.97V169.435L105.989 169.807L105.866 170.096L105.487 170.475V170.806L105.569 170.971L105.692 171.053L105.948 170.888L106.243 170.55L106.456 170.054L106.702 169.641L106.955 169.094L107.079 168.929L107.332 168.557L107.589 168.054L107.876 167.558L108.253 167.055L108.719 166.263L109.137 165.85L109.394 165.354L109.599 165.057L109.893 164.438L110.311 163.767L110.688 162.933L110.901 162.396L111.147 162.024L111.568 161.48L111.952 160.902L112.28 160.316L112.321 159.985L112.657 159.482L113.126 158.697L113.372 158.233L113.79 157.523L114.257 156.821L114.544 156.07L114.921 155.195L115.095 154.575L115.341 153.989L115.554 153.494L115.808 152.74L115.972 152.203L116.226 151.741L116.513 151.287L116.603 150.997L116.89 150.577L116.897 150.564H116.315ZM114.167 153.163L113.995 153.246L113.954 153.37L113.872 153.411V153.617L113.913 153.741L113.995 153.824L114.126 153.914L114.29 153.865L114.421 153.7V153.411L114.372 153.287L114.167 153.163ZM110.934 157.82L110.804 157.902L110.722 157.995L110.557 158.078L110.386 158.202L110.181 158.367L110.14 158.615L110.181 158.862L110.263 158.986L110.557 159.028L110.77 158.904L110.811 158.78L110.852 158.615L111.016 158.449L111.27 158.284V158.026L111.229 157.902L111.098 157.82H110.934ZM109.465 159.861L109.335 159.944L109.212 160.117L109.129 160.158L109.047 160.323L109.129 160.571L109.212 160.612H109.294L109.465 160.571L109.547 160.447L109.629 160.282L109.804 160.109L109.845 159.944L109.763 159.861H109.465ZM108.712 162.817L108.458 162.858L108.335 162.982V163.23H108.417L108.548 163.312L108.835 163.354L109.006 163.188V162.982L108.876 162.817H108.712ZM106.776 164.355L106.53 164.396L106.399 164.487L106.358 164.652L106.276 164.735L106.317 164.9L106.489 165.065L106.825 165.106L106.948 164.941L107.03 164.611L106.948 164.438L106.776 164.355ZM105.356 167.022L105.143 167.145L105.102 167.228L105.02 167.311L104.979 167.476L105.061 167.682L105.184 167.806L105.438 167.848L105.561 167.558L105.651 167.393V167.311L105.602 167.187L105.438 167.104L105.356 167.022ZM102.749 167.401L102.708 167.525V167.979L102.749 168.103L102.872 168.227L103.379 168.31L103.543 168.186L103.584 167.938L103.461 167.855L103.289 167.69L103.207 167.566L103.084 167.484L102.954 167.442L102.749 167.401ZM104.643 171.425L104.52 171.474L104.397 171.598L104.348 171.639L104.307 171.763L104.438 171.928H104.643L104.733 171.887L104.856 171.763V171.639L104.815 171.466L104.643 171.425ZM101.287 174.009L100.903 174.091L100.4 174.133L99.3517 174.06L99.0159 174.226L98.9236 174.391L99.0979 174.639L98.9748 174.763H98.6364L98.3826 174.597L98.3006 174.68L98.3416 174.845L98.3006 175.101L98.3826 175.39L98.5544 175.72L98.7595 176.092L98.8928 176.471L98.9338 176.967V177.545L98.8518 177.966L98.6775 178.296L98.6364 178.42L98.3903 178.627L98.0545 178.758L97.7597 178.923L97.5469 179.295L97.3418 179.626L97.2521 179.884L97.3828 179.925L97.6776 180.008L97.8827 180.131L98.0135 180.338L97.8417 180.462L97.6366 180.544L97.2598 180.668L97.006 180.834L96.8726 180.916L96.4548 181.709L96.1189 181.956L95.8241 181.915L95.66 181.709L95.5703 181.543L95.3242 181.378L95.2319 181.337L94.9858 181.461V181.585L94.8551 181.84V181.923L94.9038 182.295L94.9858 182.542L95.1089 182.707L95.496 182.997L95.7421 183.079L95.8728 183.335L95.9549 183.706L96.1266 183.624L96.3317 183.459L96.5855 183.327L97.5956 182.707L98.1852 182.204L99.0646 181.667L99.7773 181.247L100.246 180.834L100.828 180.08L101.295 179.287L101.5 178.751L101.623 178.379L101.541 177.875L101.328 177.71L101.287 177.504V177.008L101.5 176.877H101.754L102.041 177H102.51L102.846 176.835L103.1 176.587L103.141 176.216V175.878L103.264 175.382L103.305 174.917L102.969 174.886L102.846 175.176L102.502 175.258L102.379 175.217L102.215 175.01L102.082 174.763L102 174.504L101.91 174.091L101.664 174.05L101.287 174.009ZM93.8886 178.51L93.7552 178.593L93.5502 178.676L93.3784 178.841L93.1323 179.058L93.0015 179.182L93.0426 179.388L93.1733 179.512V179.842L93.0913 180.049L92.9605 180.263L92.7554 180.676L92.6734 180.924L92.7144 181.213L92.8785 181.386H93.1733L93.4681 181.172L93.6424 181.048L94.0193 180.924L94.3962 180.717L94.4782 180.428L94.4372 180.131L94.2654 179.966L94.0116 179.842V179.677L94.1013 179.223L94.1424 178.758L93.9706 178.51H93.8886ZM95.1089 179.471L94.8961 179.512L94.8551 179.801L94.9371 180.131L94.9858 180.379L95.0678 180.593L95.3652 180.676L95.4883 180.503V180.338L95.5293 180.131V179.842L95.4062 179.636L95.3139 179.553L95.1089 179.471Z" fill="white" stroke="white" stroke-width="10"/>
<path d="M30.6689 185.751L30.7509 186.169L30.874 186.417L31.2124 186.747L31.5072 187.498V187.829L31.3841 188.159L31.4662 188.407L31.5969 188.621L32.7301 189.323L33.1146 189.819L33.4915 190.025L33.7863 189.736L33.9504 189.364L34.0734 189.075L34.3298 188.91L35.2963 188.902H35.8885L36.0526 189.068L36.0115 189.612L36.3474 189.653L36.7729 189.777L37.0678 189.943V190.397L36.7319 190.776L36.4371 190.9L36.7729 191.354L37.2318 191.644L37.9138 192.15L38.4957 192.356L39.0879 192.562L39.5545 192.769L39.7596 192.934L39.8083 193.644L39.9314 194.098L40.1441 194.14L40.4313 193.974L40.6466 193.768L40.9825 193.809L41.5311 194.098L42.1233 195.048L42.1643 195.634L42.0002 196.006L41.7849 196.336V196.674L42.0412 196.798L42.2951 197.046L42.254 197.376L42.0412 197.459L41.6618 197.542L41.6208 197.838L41.6618 198.045H42.0412L42.6719 198.417L43.0898 198.995L43.4769 199.542L43.7717 199.831L43.9358 199.955L44.6075 199.749L45.0766 199.542L45.2817 199.16L45.3227 198.664L45.4458 198.202L45.5355 197.872L45.8713 197.748L46.3302 197.707L46.502 197.5L46.7891 197.335L47.7172 197.459L48.7273 197.542L50.2449 197.327L50.327 197.08L50.4987 196.79L51.0807 196.708L51.5063 196.873L51.6293 197.08L51.5473 197.369L51.7626 197.575L52.0574 198.285L51.6293 198.615L51.5883 198.946L51.9267 199.243L52.4753 199.152L53.4444 199.111L54.3288 199.359L55.7568 199.07L56.3875 199.111L57.0617 199.359L57.7334 199.648L58.4076 200.143L58.8742 200.35L59.3741 200.564L60.056 200.556L60.3919 200.853L60.6867 201.39L60.8918 201.844L61.3199 202.268L61.484 202.557L61.525 202.97L61.484 203.424L61.5737 203.927L61.6968 204.382L61.7865 205.174L61.6968 205.752L61.4917 206.256L61.1969 206.751L61.1558 206.958L61.0328 207.379L60.7354 208.081L60.2278 208.793L60.0637 209.123L59.8997 209.668L59.7689 210.329L59.6048 210.948L59.351 211.699L58.9716 212.071L58.5537 212.533L58.1769 213.029L57.759 213.491L57.6283 213.945L57.5462 214.358L57.4232 214.988L57.2078 215.649L56.872 216.482L56.7489 216.813L56.4131 217.399L56.3311 217.605L56.249 217.894L56.208 218.315V218.522L56.1183 218.769L56.208 219.141L56.29 219.306L56.3311 219.52L56.29 219.892L56.208 220.346L56.0849 220.728L55.6184 220.976L55.5773 221.348L55.7081 221.637L55.9952 222.099L55.9542 222.182L55.7901 222.553L55.7081 222.76L55.9132 222.884H56.249L56.6105 223H57.2463L57.7257 222.966L58.4384 222.76L58.9485 222.636L59.5792 222.463L60.3355 222.298L60.7944 222.215L61.6788 221.926L61.8429 221.885L62.1403 221.751L62.5171 221.503L62.853 221.131L62.7709 220.801L62.3941 220.718L62.1403 220.801L61.9249 220.883L61.6378 220.925L61.5481 220.966L61.2533 221.09L60.7534 221.131L60.4585 220.925L60.4996 220.718L60.7534 220.429L61.5481 220.421H61.8019L62.1813 220.339L62.6479 220.174L62.6889 220.132V219.719L62.5992 219.471L62.3531 219.348L62.0583 219.306L61.8429 219.224L61.8019 219.133L61.7122 218.72L61.9249 218.555L62.2633 218.679L62.5992 218.886L62.935 218.72L63.0247 218.431L62.976 218.225L62.853 217.969L62.6812 217.763V217.556L62.7709 217.515L62.976 217.391L63.1068 217.432L63.3529 217.721H63.6887L64.0271 217.597L64.5347 217.35L64.8296 217.432L64.9526 217.597L65.1244 217.763L65.1654 217.804L65.0013 218.134L64.9526 218.3L64.8706 218.514L64.6655 218.679L64.2809 218.886L64.0348 218.927L63.822 218.679H63.4836L63.4016 218.762L63.2298 218.886L63.1888 219.257L63.3196 219.554L63.4426 219.884V220.256L63.3196 220.842L63.5759 221.09L63.699 221.007L63.781 220.883L63.9528 220.628L64.3707 220.339L64.8706 220.008L65.2987 219.753L65.7166 219.381L66.1345 218.886L66.7241 218.341L67.3163 217.887L68.1521 217.218L68.7443 216.547L69.0801 215.927V215.638L68.9904 215.349L68.7443 215.135L68.4879 214.763V214.557L68.3982 214.309L68.2341 214.061L68.1444 213.896L68.0623 213.641L68.1931 213.517L68.652 213.475L68.9494 213.269L69.0724 212.773L69.2442 212.146L69.4493 211.65L69.621 211.312L69.9979 210.941L70.162 210.817L70.3337 210.651L70.4158 210.486L70.4568 210.104L70.3747 209.774L70.244 209.691L70.162 209.65L70.0389 209.113L69.8671 208.238L69.7364 208.279L69.2365 208.734L68.6853 207.866L68.7673 207.363L68.8571 206.95L69.4006 206.826L69.8184 206.744L70.285 206.661L70.5798 206.537H70.7439L70.9593 206.826L71.0003 207.115V207.239L71.0413 207.446L71.131 207.99L71.0413 208.362L70.8772 208.734L70.8362 209.064L71.008 209.567L71.131 209.733L71.3438 210.022L71.4669 210.311L71.3848 210.517L71.172 210.734L70.8362 210.941L70.2927 211.106L70.1209 211.56L70.0389 211.816L69.8261 212.187L69.7851 212.642L69.7441 212.938L69.9158 213.764L70.2107 213.558L70.2927 213.475L70.4158 213.393L70.6311 213.104L71.008 212.642L71.3438 212.352L71.8027 211.932L72.1796 211.312L72.4769 210.817L72.8128 210.063L73.2307 209.271L73.5665 208.692L73.9023 208.148L74.3715 207.652L74.7483 207.107V206.695L74.5766 206.199L74.4945 206.158L74.3228 206.116L73.6075 206.323L73.2717 206.529L72.9358 206.612L72.8538 206.529V206.447L72.9358 205.992L73.0589 205.613H72.7641L72.3436 205.621L72.0488 205.489L71.9258 205.407L72.2206 205.076L73.2717 204.952L73.4357 204.622V204.281L73.5178 203.909V203.62L73.7306 203.373L73.8126 203.331L74.1484 203.241L74.2305 203.373L74.1895 203.579L74.1484 203.868L74.0664 204.157L73.9433 204.529V204.994L74.0254 205.159L74.1587 205.241L74.3228 205.2L74.5766 205.035L74.7406 204.911L74.8714 204.57L74.9534 204.322L75.1175 203.909L75.1995 203.662L75.5841 203.447L75.9225 203.2L76.2096 202.704L76.4634 202.325L76.5865 201.912L76.8403 201.375L77.012 200.871L77.1761 200.582L77.4709 200.252L77.8093 199.707L78.1042 199.253L78.5631 198.747L78.6041 198.293L78.481 198.169L78.1452 198.045L77.8504 197.962L77.717 197.797L77.8914 197.673L78.1375 197.665L78.3092 197.624L78.4733 197.335L78.522 197.129L78.5143 196.798L78.8502 196.633L79.1937 196.674L79.4808 196.716L79.95 196.584L80.3679 196.254L80.7037 195.923L80.9985 195.42L81.3779 194.504L81.583 193.884L81.9599 193.296L82.6316 192.552L83.4366 191.884L84.1903 191.677L84.9876 191.38L85.4131 191.132L85.7003 190.01L85.4465 189.514L85.2414 189.308L84.8645 189.349L84.3954 189.514L84.1416 189.762L83.6827 190.1L83.3058 190.348L82.8444 190.637L82.4188 190.472L82.0419 190.183L81.9189 190.224L81.7881 190.265L81.6651 190.513L81.6241 190.686L81.6651 190.769L81.7881 190.934L81.8779 191.14V191.388L81.8368 191.636L81.6241 191.884L81.3267 192.098L81.1216 192.222L80.696 192.511L80.4089 192.841L80.2781 192.8L80.1961 192.552L80.3602 191.933L80.655 190.975L80.7781 190.769L80.696 190.389L80.2371 190.224L79.5142 189.976L78.7194 190.066L78.0862 189.852L78.3426 189.563L78.6784 189.109L78.3426 188.564L77.9555 188.275L78.4246 187.821L78.8835 188.069L79.2604 188.316L79.5552 188.399L79.768 188.11L80.0654 187.821L80.2704 187.854L80.5243 188.151L80.9421 188.399L81.5318 188.358L82.165 187.978L83.4289 188.061L84.0185 188.391L84.6081 188.35L85.0696 187.854L85.4054 187.431L85.2747 186.894L84.9773 186.316L85.2414 185.751L30.6689 185.751ZM88.1255 185.751L88.0947 185.978L88.0127 186.226V186.639L87.8819 187.018L87.7589 187.307L87.5051 187.596L87.3 187.803L87.1282 188.226L87.0872 188.391L87.2179 188.474H87.382L87.6768 188.515L87.9717 188.391L88.3101 188.009L88.6049 187.679L88.9817 187.431L89.5714 187.01L90.1969 186.432L90.7865 186.011L91.4992 185.764L91.5326 185.751H88.1255ZM86.8744 186.597L86.577 186.812L86.454 186.977L86.2899 187.142L86.0771 187.431L85.9541 187.679V188.061L86.0771 188.226L86.1592 188.309H86.3719L86.5873 188.061L86.7514 187.72L86.9231 187.39L87.0462 186.812L86.9154 186.639L86.8744 186.597Z" fill="white" stroke="white" stroke-width="10"/>
<g clip-path="url(#clip1_9_192)">
<path d="M88.5573 56.902C77.6105 56.902 68.7047 65.8242 68.7047 76.7898C68.7047 87.3452 86.7173 112.006 87.4843 113.051L88.2001 114.026C88.2838 114.141 88.4171 114.208 88.5573 114.208C88.6997 114.208 88.8321 114.141 88.9167 114.026L89.6321 113.051C90.3995 112.006 108.412 87.3452 108.412 76.7898C108.412 65.8242 99.5044 56.902 88.5573 56.902ZM88.5573 69.666C92.4796 69.666 95.669 72.861 95.669 76.7898C95.669 80.7166 92.4794 83.9136 88.5573 83.9136C84.6373 83.9136 81.4456 80.7166 81.4456 76.7898C81.4456 72.861 84.6372 69.666 88.5573 69.666Z" fill="#FF8730"/>
</g>
</g>
<path d="M324.307 124.668C325.677 124.837 326.925 123.863 327.094 122.492L329.845 100.161C330.014 98.7907 329.04 97.5429 327.67 97.3741C326.299 97.2052 325.052 98.1793 324.883 99.5496L322.437 119.4L302.587 116.954C301.217 116.785 299.969 117.759 299.8 119.129C299.631 120.5 300.605 121.747 301.976 121.916L324.307 124.668ZM168.819 87.549C170.301 87.0353 171.797 86.5374 173.305 86.0562L171.786 81.2927C170.238 81.7865 168.702 82.2975 167.181 82.8246L168.819 87.549ZM182.383 83.409C185.411 82.6079 188.48 81.8778 191.58 81.2261L190.552 76.3331C187.365 77.0028 184.214 77.7527 181.104 78.5753L182.383 83.409ZM200.875 79.5283C203.977 79.0474 207.102 78.6493 210.243 78.3407L209.754 73.3647C206.518 73.6826 203.3 74.0926 200.109 74.5873L200.875 79.5283ZM219.656 77.6926C222.792 77.5702 225.936 77.5424 229.082 77.6159L229.199 72.6173C225.946 72.5413 222.698 72.5701 219.461 72.6964L219.656 77.6926ZM238.484 78.1439C241.603 78.4239 244.716 78.8101 247.817 79.3092L248.611 74.3727C245.392 73.8546 242.163 73.454 238.931 73.1639L238.484 78.1439ZM257.032 81.1411C260.067 81.863 263.082 82.7016 266.073 83.6629L267.603 78.9029C264.487 77.901 261.346 77.0279 258.189 76.2768L257.032 81.1411ZM274.88 86.8888C277.75 88.0738 280.59 89.3825 283.394 90.8209L285.677 86.3722C282.748 84.87 279.783 83.5038 276.788 82.2671L274.88 86.8888ZM291.543 95.4393C294.163 97.0719 296.745 98.8302 299.283 100.72L302.269 96.7089C299.62 94.7368 296.924 92.9008 294.187 91.1956L291.543 95.4393ZM306.577 106.625C308.888 108.655 311.155 110.807 313.374 113.086L316.956 109.598C314.647 107.227 312.286 104.985 309.877 102.869L306.577 106.625ZM319.674 120.058C320.675 121.251 321.665 122.473 322.642 123.725L326.583 120.648C325.57 119.35 324.543 118.082 323.504 116.843L319.674 120.058Z" fill="#FF8730"/>
<path d="M216.743 350.527C215.55 351.221 215.145 352.751 215.839 353.945L227.148 373.396C227.842 374.59 229.372 374.995 230.566 374.301C231.759 373.607 232.164 372.076 231.47 370.883L221.418 353.593L238.708 343.54C239.902 342.846 240.307 341.316 239.613 340.122C238.919 338.929 237.388 338.524 236.195 339.218L216.743 350.527ZM319.414 262.998C319.413 264.716 319.388 266.429 319.34 268.135L324.338 268.276C324.388 266.523 324.413 264.765 324.414 263.002L319.414 262.998ZM318.752 278.38C318.449 281.821 318.04 285.215 317.518 288.546L322.458 289.319C322.998 285.871 323.421 282.365 323.733 278.818L318.752 278.38ZM315.555 298.567C314.756 301.925 313.826 305.193 312.76 308.352L317.497 309.952C318.616 306.637 319.587 303.221 320.419 299.725L315.555 298.567ZM309.01 317.769C307.567 320.872 305.962 323.829 304.189 326.62L308.409 329.302C310.307 326.314 312.015 323.164 313.544 319.878L309.01 317.769ZM298.203 334.651C296.004 337.164 293.615 339.479 291.029 341.574L294.175 345.46C296.993 343.178 299.586 340.663 301.965 337.944L298.203 334.651ZM282.773 347.116C279.932 348.674 276.896 350.018 273.655 351.126L275.272 355.857C278.782 354.658 282.081 353.198 285.177 351.5L282.773 347.116ZM263.957 353.606C260.789 354.167 257.454 354.533 253.944 354.689L254.166 359.684C257.882 359.519 261.435 359.13 264.829 358.529L263.957 353.606ZM243.802 354.571C240.558 354.363 237.185 353.993 233.679 353.452L232.917 358.394C236.56 358.956 240.081 359.343 243.482 359.561L243.802 354.571ZM223.654 351.514C222.008 351.134 220.337 350.721 218.64 350.271L217.36 355.105C219.108 355.567 220.832 355.994 222.531 356.386L223.654 351.514Z" fill="#FF8730"/>
<g clip-path="url(#clip2_9_192)">
<path d="M439.377 148.482L438.876 148.489L438.328 148.603L437.827 148.837L436.901 149.385L436.132 149.809L435.859 149.968L435.472 150.127L434.85 150.288L433.846 150.447L433.187 150.643L432.138 150.84L431.758 150.999L431.485 151.198L431.098 151.539L430.756 151.964L429.693 155.384L425.492 154.156L423.327 155.285L422.06 156.788L422.409 161.27L421.984 161.118L421.201 160.898L420.503 160.67L419.954 160.556L419.53 160.566L419.067 160.604L418.566 160.801L418.511 160.839L418.179 161.073L417.942 161.308L417.714 161.543L417.251 162.149L416.833 162.887L416.333 163.652L415.452 164.7L409.938 164.662L394.755 164.328L380.08 163.828L377.946 163.735L376.116 163.676L364.861 163.249L354.067 162.849L349.989 162.69L343.275 162.431L333.743 162.104L319.198 161.543L315.227 161.415L313.829 161.369L308.057 161.173L304.722 161.059L296.171 160.687L292.86 160.535L291.31 165.914L290.154 169.896L290.007 170.405H457.819L457.885 170.114L457.961 169.886L458.234 169.69L458.509 169.614L458.858 169.569H459.01L459.207 169.531L459.397 169.448L459.473 169.069V168.955L459.352 168.796V168.53L459.39 168.303L459.307 168.113L459.107 167.886L459.145 167.725L459.031 167.459L458.599 167.345L458.061 167.241L457.826 167.089L457.664 166.862L457.505 166.672V166.245L457.65 165.328L457.536 165.101L457.339 165.025L457.142 164.759L457.028 164.645L456.829 164.683L456.328 165.146L456.1 165.117L455.979 164.965L455.554 165.345L455.091 165.655L454.864 166.231L454.208 166.928L453.905 167.165L453.791 167.506L453.829 167.931L453.952 168.045H454.066L454.218 168.007L454.377 168.234L454.339 168.538L454.498 168.689L454.581 168.955L454.391 169.493L454.277 169.841L454.201 169.993L454.042 169.955L453.89 169.803H453.769L453.617 169.886H453.504L453.269 169.773L452.955 169.697L452.796 169.735L452.682 169.697L452.644 169.431L452.758 169.166L453.297 168.969L453.487 168.893L453.572 168.81L453.639 168.317L453.29 168.052L452.979 167.938L452.509 167.862L452.243 167.755L452.044 167.559L451.847 167.528L451.612 167.376H451.422L451.346 167.68V168.104L451.315 168.369L451.239 168.53L450.928 168.644L450.655 168.689H450.466L450.39 169.069V169.265L450.352 169.417L450.2 169.493L449.889 169.303L449.841 169L449.879 168.81L449.841 168.651L449.72 168.621L449.53 168.583L449.371 168.621L448.954 169.234H448.795L448.643 169.007L448.636 168.779L448.598 168.628L448.522 168.438L448.284 168.286V168.173L448.36 167.976L448.315 167.672L448.201 167.331L448.004 167.066L447.959 166.907L448.035 166.679L448.149 166.331L448.65 166.018L449.044 166.207L449.395 166.511L449.706 166.587L449.941 166.701L450.214 166.814L450.449 167.004L450.838 167.149L450.952 166.997L450.556 166.428L450.442 166.238L450.283 166.049L450.048 165.738L449.613 165.48L449.113 165.366L448.688 165.252L448.415 165.183L448.104 165.07L447.829 164.918L447.397 164.88L447.055 165.041L446.744 165.117L446.623 165.086L446.547 165.01L446.623 164.776L446.775 164.586L446.813 164.51L446.972 164.349L446.575 164.008L446.188 163.941H445.84L445.802 163.979L445.529 164.176L445.225 164.29L444.99 164.252L444.828 164.138L444.866 163.835L445.056 163.721L445.256 163.562L445.294 163.259L445.284 162.984L445.17 162.68L445.163 162.567V162.453L445.125 162.028L445.391 161.763L445.429 161.377L445.346 160.846L445.263 160.459L445.225 160.345H445.301L445.536 160.27L445.847 160.535L446.243 161.256L446.364 161.794L446.523 162.476L446.917 163.204L446.955 163.242L447.276 163.621L447.351 163.925L447.511 164.001L447.7 164.114H447.973L448.125 163.994L448.201 163.804V163.69L448.163 163.538L448.118 163.114L447.648 162.242L447.29 161.476L447.017 160.632L446.575 159.449L446.219 158.267L445.939 157.311L445.854 156.856L445.771 156.508L445.695 156.091L445.65 155.474L445.643 154.974L445.559 154.443L445.094 154.481L444.99 155.749L445.035 155.977L444.8 155.946L444.449 155.87L444.29 155.908L443.948 155.991L443.402 155.839L442.93 155.612L442.581 155.233L442.27 155.005L441.297 154.633L440.827 154.405L440.63 154.14L440.471 153.798L440.585 153.602L440.934 153.564L441.404 153.715L442.028 154.246L442.111 154.322L442.65 154.315L443.309 154.08L443.737 153.806L444.275 153.843L444.548 153.836L444.859 153.95L445.17 153.791H445.436L445.353 153.139L445.27 151.995L445.225 151.151L445.218 150.613L445.094 149.664L444.973 149.657L444.396 149.892L443.896 150.202L443.395 150.477L443.158 150.591L442.968 150.56L442.384 150.219L441.714 149.726L441.131 149.195L440.782 148.967L440.385 148.778L439.922 148.588L439.377 148.482ZM448.854 166.824L448.695 166.945L448.702 167.172L448.778 167.362L448.901 167.476L449.136 167.665L449.402 167.741L449.713 167.582L449.751 167.393L449.63 167.165L449.281 166.975L449.082 166.862L448.854 166.824Z" fill="white" stroke="white" stroke-width="10"/>
<path d="M290.007 168.509L289.252 171.138L287.344 177.822L287.163 178.429L285.552 184.094L284.467 187.842L283.684 190.506H431.444L431.447 190.504L431.452 190.506H434.333L434.233 190.253L434.036 189.911L433.801 189.525L433.915 189.146H434.226L434.537 189.328L434.509 189.904L434.66 190.056L434.933 190.246L435.244 190.322L435.714 190.201H435.904L436.066 190.428L436.037 190.506H436.673L436.649 190.421L436.056 189.473L436.011 189.087L436.284 188.783L436.011 188.594L435.776 188.404L435.306 188.214L435.154 188.063L435.145 187.607L434.948 187.257V186.65L435.365 185.953L435.79 185.415L436.369 184.649L436.863 184.064L437.098 183.912L437.288 183.791L437.682 183.943L437.841 184.481L437.888 185.171L438.161 186.195L438.517 186.233L438.935 185.998L439.68 186.263L440.181 186.256L440.378 185.991L440.143 185.612L439.946 185.377L439.322 185.232L439.049 185.119L438.814 185.081L438.655 184.777L438.42 184.474V183.784L438.486 183.443L438.638 182.829L439.028 182.288L439.604 182.205L440.264 182.464L440.775 182.653L441.01 182.464L441.123 182.267L441.313 182.115L441.731 181.188L442.118 180.992L442.467 180.764L442.854 180.454L443.082 180.219L443.509 180.067L444.207 180.136L444.555 179.785L444.7 178.754L444.313 178.716L443.585 179.643H443.395L443.613 178.875L443.879 177.761L443.454 177.692L442.794 177.578L442.559 178.078L442.294 178.429L442.028 178.929L441.876 179.157L441.366 179.24L441.396 178.285L441.161 177.709L441.427 177.519L442.315 176.744L442.353 176.32L442.08 176.206L441.389 176.789L441.23 176.485L440.955 176.296L440.682 176.068L440.25 175.917L439.626 175.623L439.004 175.509L439.08 175.168L439.308 174.931L440.364 175.189L440.903 175.068L441.138 175.53L441.648 175.675L442.225 175.251L442.771 175.288L443.082 175.319L443.471 174.968L444.555 174.885L445.294 174.727L446.447 174.106L447.344 173.907L447.769 173.71L448.08 174.127L448.232 174.165L448.543 173.93L449.158 173.316L449.433 173.082L449.858 172.882L450.473 172.724L450.821 172.913L451.104 173.217L451.218 173.293L451.605 173.02L451.833 172.792L452.219 172.823L452.53 172.634L452.803 172.551L453.069 172.247L453.259 172.01L453.42 171.858L453.686 171.586L453.905 170.396L454.294 170.01L454.491 169.858L455.03 169.848L455.462 170L455.424 170.19L455.462 170.389L455.424 170.503L455.348 170.654L455.462 170.768L455.547 170.882V170.996L455.471 171.117L455.272 171.192L455.12 171.458L455.044 171.73L454.968 171.882L455.015 172.11L455.205 172.261L455.554 172.148L455.865 171.723L455.858 171.413L455.934 171.223L456.283 171.062L456.397 170.986L456.594 170.759L456.746 170.524L456.935 170.183L457.125 169.91L457.163 169.562L457.08 169.069L457.27 168.917L457.505 168.72L457.816 168.521L457.818 168.509H290.007H290.007Z" fill="white" stroke="white" stroke-width="10"/>
<path d="M283.684 188.61L283.1 190.594L281.571 195.8L278.747 205.454L277.389 210.61H456.347L455.319 209.491L454.605 208.239L453.86 206.751L453.307 205.992L453.231 205.758L453.107 205.568H452.955L452.796 205.651L453.117 206.523L453.124 206.988L452.613 206.912L452.454 206.419L452.371 205.926L452.257 205.689L451.826 205.547L451.436 205.698L451.163 205.592L451.55 205.167L451.863 205.196L452.364 205.234L452.485 204.999L452.319 203.854L452.272 203.361L452.348 202.975L452.386 202.785L452.462 202.588L452.379 202.361L452.303 202.285L451.992 202.482H451.764L451.795 202.102L452.023 201.678L451.36 201.337L450.306 200.389L449.599 199.478L449.395 198.483L449.082 197.99L448.809 198.104L448.771 198.682L448.505 198.879L448.27 198.955L448.004 199.106L447.859 199.561L447.541 199.651L447.42 198.772L447.176 197.741L446.433 197.362L445.46 196.989L445.263 196.952L444.29 196.769L443.592 196.39L443.433 196.314L442.65 195.442L442.132 194.486L441.821 193.728L441.852 193.304L441.268 193.311L440.188 193.514L439.415 193.789V194.055L439.763 194.169L440.112 194.32L440.699 194.121L441.275 194.228L441.517 194.721L441.752 195.411L441.8 195.837L441.724 196.179L442.149 196.217L442.346 196.283L442.657 196.624L443.015 196.928L443.091 197.468L443.022 197.772L442.787 197.817L442.55 197.968L442.36 198.013L442.163 197.779L441.928 197.748L441.776 197.862L441.935 198.355L441.7 198.476L441.396 198.552L441.086 198.559L440.851 198.293L441.031 197.445L440.841 197.369L440.219 197.414L439.37 198.265L439.142 198.803L439.301 199.22L439.422 199.296L439.346 199.606L439.149 199.72L438.845 199.917L438.724 199.879L438.449 199.576L438.252 199.234L438.169 198.848L438.479 198.31L438.282 198.044L437.744 198.393L437.319 198.703L437.043 198.817L436.93 199.166L437.091 199.659L437.212 199.934L436.939 200.161L436.749 200.009L436.588 199.706L436.505 199.592L436.156 199.478L436.118 199.251L436.111 198.909L436.27 198.71L436.308 198.483L436.612 198.445L436.846 198.248L437.112 197.862L437.226 197.596L437.537 197.248V197.02L437.606 196.52L437.257 196.406L436.559 196.762L436.18 197.141L435.866 197.186L435.009 197.155L434.537 196.814L434.264 196.435L433.718 196.056L433.293 195.676L433.17 195.449L433.246 195.1L433.825 194.941L434.098 194.676L434.326 194.365L434.675 194.093V193.827L434.053 193.797L433.315 194.183L433.004 194.418L432.655 194.304L432.42 194.19L432.268 194.38L432.047 195.496L431.613 195.193L431.492 194.311L431.485 193.932L432.137 193.045L431.554 192.818L431.516 192.59V192.362L432.016 192.128H432.403L432.555 191.893L432.904 191.656L433.407 191.504L433.369 190.928L433.094 190.777L432.237 190.208L431.955 189.904L431.188 190.414L430.877 190.338L431.067 189.798L431.333 189.532L431.288 188.804L431.444 188.61L283.684 188.61ZM431.452 188.61L432.807 189.215L433.749 190.004L433.984 190.118L434.098 190.08L434.25 190.004L434.447 189.807L434.675 189.845L434.986 189.618L435.062 189.305L434.903 189.077H434.63L434.44 188.887L434.333 188.61H431.452ZM436.037 188.61L435.914 188.956V189.184L436.035 189.335L436.225 189.525L437.167 190.397L437.326 190.208L436.884 189.366L436.673 188.61H436.037ZM436.756 192.242L436.369 192.393L436.018 192.742L435.79 193.128L435.714 193.469L435.762 193.742L435.876 193.932L436.073 194.008L436.422 193.925L436.649 193.621L436.725 193.5V193.083L436.839 192.893L436.991 192.659L437.029 192.507L436.991 192.317L436.756 192.242ZM438.676 193.948L438.593 193.986L438.517 194.1L438.403 194.41L438.138 194.6L437.789 194.835L437.599 195.024L437.637 195.214L437.751 195.328L437.948 195.404L438.183 195.517L438.373 195.555L438.496 195.48L438.534 195.366L438.525 195.169L438.6 194.941L438.762 194.752L438.914 194.593L439.028 194.403V194.214L438.828 193.986L438.676 193.948Z" fill="white" stroke="white" stroke-width="10"/>
<path d="M277.389 208.714L277 210.188L277.366 212.053L277.6 213.246H278.108L285.917 213.359L287.899 213.48L287.975 213.487L289.221 213.533L290.847 213.615L291.241 213.632L300.476 214.087L305.489 214.374H305.664L305.876 214.384L306.362 214.398L308.368 214.488L310.874 214.594L312.697 214.663L315.265 214.687L320.506 214.746L320.413 216.545L320.323 218.1L323.444 217.584L323.779 215.976L324.021 215.763L324.173 215.528L324.218 215.301L324.166 214.905L327.287 214.846L329.019 215.019L331.547 215.332L333.463 215.415L333.607 215.877H333.804L335.02 215.922L335.748 215.474L338.696 215.073L339.759 215.095L341.962 215.142L342.949 215.156H343.647L349.851 215.322L352.412 215.408L353.345 215.398L357.197 215.453L363.219 215.483L363.257 215.49L365.362 215.588L366.675 215.656L371.611 215.618L373.292 215.725L373.71 215.756L375.35 215.832L378.995 215.908L384.44 216.021L384.516 217.28L392.681 216.953L399.554 216.65L400.952 216.59L403.369 216.491L407.871 216.301L410.826 216.242L410.795 219.108L410.757 222.673L410.75 226.989L413.508 226.397L413.591 226.776L413.515 227.004L413.439 227.316L413.477 227.734L413.643 228.499L413.719 228.954L413.84 229.53L413.888 229.834L413.85 230.144L413.736 230.486L413.66 230.713H464.158L464.303 230.433L464.524 229.668L464.759 229.127L464.403 228.369L464.433 227.414L464.462 226.42L464.182 226.034L463.75 225.541L463.55 225.2L463.353 224.593V224.131L463.854 223.931L463.885 223.211H463.422L462.914 222.945L462.366 222.576L462.055 222.196L461.462 221.855L460.84 221.552L460.529 221.521L460.294 221.559L459.952 221.672L459.639 222.059L459.328 222.18H458.751L458.554 222.073L458.433 221.997L458.196 221.611L457.999 221.232L457.605 220.435L457.37 219.897L457.087 219.404L456.852 219.063L456.701 218.949L456.549 219.184L456.784 219.601L457.057 220.094L457.256 220.511L457.18 220.822L457.104 221.049L456.99 221.239L456.639 221.21L456.131 220.755L455.737 220.338L455.462 219.722L455.106 219.267L454.643 218.887L453.814 218.366L453.701 217.787L453.344 217.332L452.993 217.143L452.948 216.725L453.762 216.256L454.225 215.946L454.422 216.135L454.695 216.635L454.93 216.825L455.091 216.863L455.205 216.818L455.592 216.469L455.668 216.204L455.585 215.825L455.037 215.521L455.265 215.095L455.417 214.791L455.492 214.594L455.568 214.291L455.644 213.943L455.872 213.601L456.421 213.518L456.335 213.215L456.062 213.139L455.675 212.874L455.478 212.836L455.326 212.798L455.205 212.57L455.281 212.343L455.471 212.108L456.207 211.909L456.366 212.373L456.563 212.677L456.686 212.942L457.042 213.397L457.315 213.973L457.947 214.846L458.5 215.68L458.623 216.332L458.424 216.56L457.999 216.87L457.733 217.143L457.619 217.218L457.543 217.37L457.505 217.569L457.581 217.835L457.816 217.873L458.205 217.636L458.395 217.173L458.782 216.901L459.245 216.666L459.715 217.008L460.019 216.932L460.057 216.704L459.435 215.976L459.155 215.597L458.372 214.573L457.384 213.122L457.073 212.44L456.867 211.833L456.791 211.484L456.784 211.181L456.898 210.908L457.171 210.795L457.284 210.719L457.277 209.802L456.928 209.346L456.347 208.714L277.389 208.714ZM485.22 209.884L484.56 209.93L483.587 210.05L483.041 210.25L482.462 210.598L482.234 210.946L482.159 211.288L482.121 211.598L482.32 211.712L482.707 211.402L482.897 211.439L482.942 211.629L482.79 211.819L482.904 212.008L483.139 212.236L483.374 212.426L483.611 212.767L483.846 213.032L484.081 213.57L484.475 214.215L485.106 214.936L485.614 214.967L486.314 214.846L487.005 214.27L487.081 213.843L486.732 213.89L486.155 214.315L485.721 214.436L485.334 214.474L485.182 214.284L484.94 213.943L485.023 213.791L485.099 213.67L485.289 213.556L485.638 213.132L485.866 212.629L486.208 212.281L486.754 211.97L487.219 211.819L487.758 211.85L488.227 211.956L488.814 212.146L489.163 212.335L489.709 212.705L490.257 212.971L490.803 213.35L491.32 213.881L491.79 214.488L492.108 215.408L492.421 216.09L492.55 216.856L492.671 217.697L492.754 218.418L492.801 219.07L492.808 219.76L492.777 220.679L492.785 221.483L492.83 222.097L492.877 222.514L492.96 223.507L492.998 223.886L493.088 224.576V225.306L493.096 225.92L493.181 226.375L493.34 226.679L493.575 226.906L493.924 226.868L494 226.558L493.917 226.33L493.72 225.989L493.599 225.259L493.865 225.031V224.455L493.855 223.993L493.734 223.273L493.81 223.197L494.349 222.651L494.776 222.414L495.125 222.49L495.36 222.566L495.519 222.718L495.595 222.87L495.64 223.173L495.792 223.287L495.915 223.59L496.074 223.818L496.309 224.083L496.423 224.159H496.734L497.244 224.076L497.586 223.803L497.98 224.069L497.555 224.342L497.593 224.721L497.638 225.031L497.251 225.107L497.017 224.842L496.741 224.889L496.506 224.927L496.392 225.003L496.316 225.124L496.399 225.389L496.589 225.541L496.827 225.655L497.1 225.61L497.335 225.572L497.562 225.724L497.721 225.913L497.342 226.413L497.221 226.603L497.266 226.868L497.228 227.217L497.235 227.52L497.358 228.02L497.479 228.627L497.721 229.658L497.66 230.713H500.121L500.1 230.63L500.366 230.168L500.6 230.054L500.828 229.933L501.025 230.123L501.298 230.199L501.384 230.426L501.443 230.713H501.923L501.847 230.303L501.564 229.393L501.049 227.907L500.638 226.186L500.114 224.358L499.4 222.718L499.081 221.725L498.329 220.087L497.342 218.145L496.392 216.469L495.519 215.028L494.738 214.004L493.993 213.17L493.088 212.373L491.956 211.653L490.665 211.015L488.987 210.46L486.929 209.908L485.994 209.915L485.22 209.884Z" fill="white" stroke="white" stroke-width="10"/>
<path d="M413.66 228.817L413.546 229.165L413.508 229.317L413.546 229.469L413.591 229.63L413.667 229.82V230.009L413.553 230.237L413.439 230.433L413.249 230.737V231.002L413.211 231.313L413.332 231.692L413.454 231.996V232.799L413.537 233.027L413.651 233.178L413.85 233.413L414.047 233.641L414.13 233.906L414.206 234.134L414.327 234.361L414.403 234.513L414.904 234.795L417.054 236.002L418.504 236.812L420.669 239.853L420.7 239.588L420.973 239.512L421.293 240.157L421.414 240.498L421.604 240.612L421.953 240.46L422.029 240.074L422.257 239.808L422.378 239.771L422.454 240.226L422.613 240.719H422.812L423.389 240.332L424.201 239.946L424.55 239.133L424.739 238.716L425.281 238.291L425.895 237.829L426.009 237.405L426.123 236.561L426.313 235.909L426.655 235.485L426.966 235.023L427.11 234.409L427.073 233.688L426.828 233.11L426.79 232.882L426.942 232.534L427.17 232.192L427.246 231.616L427.512 231.04L427.597 231.806L427.528 232.685L427.725 232.837L427.922 233.368L428.112 233.292L428.309 233.065V233.292L428.357 233.982L428.281 234.513L427.36 235.788L426.624 236.478L426.479 237.282V237.632L426.403 238.201L426.213 238.588L425.447 239.778L424.331 241.091L423.631 241.667L423.054 242.288L422.553 242.828L422.515 242.942L422.712 243.246L423.959 243.539L423.928 243.767L426.693 244.473L426.776 245.087L426.548 246.081L426.586 246.346L426.669 246.536V246.924L426.555 247.152L426.441 247.311L426.327 247.5L426.251 247.69L426.213 247.955L426.175 248.228L426.137 248.569L426.182 248.918L426.258 249.183L426.458 249.525L426.814 249.942L426.906 250.814H430.462L430.581 250.063L430.656 249.721L430.815 249.487L431.005 249.676L431.129 250.139L431.06 250.708L431.039 250.814H437.637L437.471 250.655L437.385 250.049L437.547 250.004L437.661 249.624L437.926 249.428L438.358 249.996L438.752 250.724L438.847 250.814H439.358L439.415 250.338L439.68 249.759L439.559 248.728L439.825 248.152L440.212 248.297L440.644 249.214L440.851 249.897L441.472 249.821L441.306 248.676L440.478 247.531L440.006 246.507L439.877 245.815L439.953 245.087L440.06 244.284L440.599 243.442L440.682 244.36L440.727 244.928L440.889 245.308L441.123 245.884L441.131 246.377L441.525 247.18L442.187 247.059L442.809 247.052L443.196 247.507L443.243 248.197L443.523 248.766L443.644 249.304L443.879 249.987L444.078 250.603L444.247 250.814H444.468L444.662 250.018L444.693 249.525L444.648 248.911L444.525 248.342L444.404 247.728L443.63 247.356L443.547 246.894L444.01 246.621L444.397 246.735L444.791 246.924L444.98 247L445.415 247.142L445.726 247.18L446.037 247.022L446.264 246.87L446.34 246.604L446.727 246.521L446.851 246.825L447.2 247.128L447.662 246.969L447.859 246.704L447.852 246.363L447.344 245.756L446.796 245.642L445.977 244.997L446.364 244.649L446.63 244.383L447.411 244.526L447.921 244.905L448.581 244.822L449.044 244.898L449.326 245.315L449.523 245.656L449.675 245.77L450.024 245.611V245.194L450.404 244.732L450.359 243.587L450.117 242.743L450.465 242.629L451.011 243.077L451.246 242.925L450.973 242.47L450.852 242.122L450.655 241.781L450.487 240.863L450.093 239.915L450.29 239.68L451.035 240.401L451.384 240.515L451.854 241.046L451.93 241.197L451.467 241.129L451.429 241.28L451.74 241.698L452.091 241.849L452.447 242.153L452.758 242.494L452.993 242.563L453.069 242.184L452.91 241.653L453.024 241.453L452.941 241.226L452.478 240.96L452.357 240.354L452.82 240.384L453.169 240.195L453.124 239.96L452.889 239.657L452.613 239.474L452.303 238.974L451.992 238.671L451.674 238.178L451.75 237.988L452.379 238.443L452.644 238.588L452.765 238.398L452.606 238.17L452.333 237.677L452.561 237.594L453.024 237.329L453.297 237.168L453.411 237.016L453.563 236.902L453.724 237.009L453.61 237.357L453.496 237.898L453.579 238.087L454.004 238.277L454.55 238.571L455.023 238.457L455.409 238.298L455.599 238.374L455.72 238.564L455.879 238.829L456.031 239.019L456.193 239.171L456.656 239.285L456.701 239.55L456.352 239.898L455.972 240.477L455.661 241.015L455.471 241.243L455.782 241.432L456.131 241.046L456.511 240.543L457.05 239.891L457.201 239.505L457.239 239.126L457.08 238.739L456.845 238.095L456.838 237.791L457.225 237.594L457.657 237.708L458.12 237.547L458.158 237.502L458.509 237.35L458.782 237.199L458.972 237.154L459.055 237.267L459.093 237.426L458.668 238.002L458.554 238.306L458.129 238.656L457.902 239.081L458.175 239.27L458.447 239.301L458.91 238.912L458.872 239.339L459.079 240.484L458.576 240.681L457.491 241.074L456.724 241.842L456.686 242.304L456.8 242.418L457.498 242.259L457.771 241.984L457.961 241.643L458.348 241.484L458.744 241.712L458.941 242.395L459.214 242.774L458.948 243.084L458.523 243.245L457.626 243.139L457.156 243.253L456.966 243.487L457.201 243.791L457.598 244.056L458.061 243.935L458.447 244.049L458.758 244.277L458.644 244.542L457.332 245.163L457.301 245.625L457.498 246.005L457.809 246.811L457.733 247.114L457.512 247.88L457.391 248.069L457.315 248.304L457.598 248.759L457.484 249.563L457.491 249.942L457.65 250.48L457.809 250.783L457.816 250.814H465.195L465.314 250.679L465.509 250.814H469.527L469.589 250.717L469.271 249.949L469.93 249.79L470.661 248.6L470.927 248.138L471.079 247.835L471.07 247.105L471.611 246.604L472.271 246.104L472.461 245.756L472.726 245.483L473.158 245.521L473.396 245.824L473.434 246.166L473.479 246.393V246.704L473.6 246.818L473.721 247.311L473.638 247.462L473.372 247.849L473.41 248.038L474.108 247.918L474.967 247.455L475.499 246.604L475.847 245.952L476.662 245.718L477.473 245.824L478.302 246.507L478.416 246.422L478.954 246.346L479.728 245.725L480.549 245.642L480.86 245.832L481.088 245.824L481.164 245.559L480.967 245.218L481.354 244.753L482.054 244.784L482.994 245.27L483.032 245.732L482.607 245.929L482.144 246.08L482.03 246.318H481.757L481.484 246.242L481.378 246.894L481.461 247.545L481.651 247.735L481.848 247.697L482.31 247.311L482.379 246.735L483.542 245.877L485.092 245.104L485.593 244.867L485.942 244.405L486.17 244.48L486.519 244.36L487.105 244.315L488.114 244.08L489.36 244.253L490.485 243.746L491.759 243.35L492.808 243.039L493.741 242.911L494.282 242.987L494.98 242.715L496.067 242.546L497.076 242.304L497.814 242.146L498.481 242.525L498.906 242.942L499.143 243.056L499.378 243.198L499.568 242.819L499.295 242.515L499.682 242.622L500.114 242.47L500.729 242.115L500.852 242.387L500.387 243.191L500.821 243.419L501.467 242.191L501.695 241.416L501.374 240.429L501.367 239.626L501.322 239.24L500.897 239.019L500.624 239.171L500.311 239.405H499.962L499.81 239.292L499.499 239.112L499.492 238.799L499.803 238.374L499.72 238.223L499.371 238.268L499.181 238.419L498.678 238.732L498.557 238.505L498.474 238.05L498.664 237.509L498.891 236.819L499.354 236.585L500.017 236.578L500.13 236.426L500.045 235.736L500.159 235.546L500.045 235.281L500.51 234.968L500.425 234.582L499.993 234.089L499.872 233.823L500.069 233.671L500.456 233.816L500.814 234.233L501.004 234.044L501.232 233.657L501.543 233.543L501.785 234.264L501.944 234.916L502.067 235.257L502.143 235.409L502.271 236.743L502.399 237.974L502.568 239.043L502.575 239.536L502.416 239.733L502.423 239.998L502.347 240.339L502.316 241.067L502.278 241.795L501.861 242.411L501.367 243.753L501.602 244.139L502.219 243.177L502.561 242.487L502.893 241.181L503 239.725L502.948 238.23L502.734 236.478L502.561 234.447L502.468 233.034L502.385 231.813L502.226 231.585L502.264 231.237L501.602 231.206L501.291 231.706H501.056L500.859 231.175L500.745 230.872L499.931 231.685L499.43 232.223L499.119 232.382L499.081 231.92L499.537 230.957L499.886 230.531L499.962 230.455L500.228 230.265L500.38 229.879L500.259 229.348L500.121 228.817H497.66L497.653 228.947L497.776 229.827L497.79 230.865L497.479 231.244L496.941 231.868L496.561 232.406L495.626 232.875L494.935 233.299L492.877 234.044L492.025 234.323L491.251 234.712L490.864 234.757L490.599 234.833L490.323 235.181L490.05 235.03L489.739 234.916L489.156 234.999L488.614 235.698L488.462 235.433L488.068 235.243L486.64 235.788L486.17 235.719L484.309 236.54L483.345 237.161L483.041 237.661L483.2 237.926L482.928 238.163L482.5 238.277L482.31 238.55L481.924 238.936L481.848 239.353L481.575 239.36L481.461 239.05L481.264 239.019L480.915 239.095L480.253 239.33L479.752 239.301L479.206 239.346L478.468 239.308L477.184 239.247L476.403 239.102L476.016 238.837L475.817 238.343L476.082 238.223L476.517 238.298L477.056 238.253L477.525 238.095L478.029 237.974L478.575 238.125L478.885 238.429L479.272 238.306L479.548 238.419L479.783 238.23L480.011 238.147L480.405 238.298L480.753 238.215L480.632 237.912L480.086 237.571L479.538 237.35L478.408 237.244L476.151 237.229L474.131 237.092L471.169 236.281L468.086 235.044L467.303 234.399L466.916 234.067L465.974 233.157L464.88 232.399L463.94 231.375L463.657 230.493L463.726 229.651L464.158 228.817L413.66 228.817ZM501.443 228.817L501.543 229.296L501.709 230.365L501.785 230.592L502.058 230.554L502.172 230.206L502.051 229.516L501.922 228.817H501.443ZM501.322 234.726L501.208 235.113L501.056 235.416L501.094 235.575L501.329 235.719L501.488 235.795H501.64L501.716 235.606V235.378L501.671 235.068L501.595 234.916L501.474 234.764L501.398 234.726H501.322ZM501.27 237.64L501.118 237.715L500.88 237.791H500.805L500.729 237.95L500.767 238.102L500.928 238.253L501.08 238.291L501.239 238.367L501.353 238.322L501.391 238.246L501.429 237.905V237.753L501.27 237.64ZM500.244 244.184L500.055 244.345L500.017 244.725L499.941 244.959L499.903 245.376L499.948 245.68L499.91 245.877L499.682 246.066L499.409 246.263L499.454 246.68L499.568 247.059L499.105 247.408L498.839 247.569L498.922 248.024L499.005 248.676L498.975 249.821L498.823 250.549L498.723 250.814H499.535L499.855 248.631L500.235 247.363L500.456 246.173L500.494 245.68L500.6 245.294L500.676 244.715L500.638 244.526L500.593 244.374L500.244 244.184ZM472.582 246.749L472.544 246.787L472.24 246.825L472.005 247.022L471.967 247.173V247.363L471.929 247.56L471.974 247.787L472.05 248.129L472.171 248.166L472.361 248.204L472.636 248.121L472.75 248.008L472.864 247.742L472.788 247.47L472.703 247.204L472.741 246.939L472.703 246.787L472.582 246.749ZM445.619 248.638L445.398 250.086L445.436 250.283L445.794 250.549L446.416 250.58L446.682 250.542L446.841 250.572L446.993 250.383L446.212 249.321L446.167 248.783L445.619 248.638ZM437.941 250.769L437.779 250.814H438.05L437.941 250.769Z" fill="white" stroke="white" stroke-width="10"/>
<path d="M426.906 248.918L427.49 254.462L427.618 255.958L427.656 256.375L427.929 256.299L428.357 255.989L428.63 255.913L428.864 256.065L429.168 256.017L429.327 255.714L429.168 255.252L429.047 254.872V254.645L429.04 254.493L428.803 254.107L428.136 253.272L427.787 252.552L427.891 252.165L428.326 252.203L428.834 252.848L429.145 253.189L429.458 253.113L429.738 253.948L430.163 254.1L430.832 254.13L431.098 253.628L430.977 253.173L431.053 252.559L431.043 252.142L430.884 251.686L430.49 251.073L430.331 250.655L430.255 250.2L430.436 249.086L430.462 248.918H426.906ZM431.039 248.918L430.908 249.541L430.794 249.89L430.756 250.345L430.801 250.655L431.074 251.148L431.509 251.452L431.781 251.641L432.016 252.324L432.062 252.476L432.268 253.886L432.427 254.538V254.766L432.275 254.841L431.879 254.775H431.765L431.575 255.003L431.181 254.896L430.718 254.934L430.331 255.131L430.018 255.441L430.452 255.51L431.423 255.692L431.933 255.806L432.403 256.337L432.486 257.103L432.648 257.444L432.8 257.558L433.035 257.361L433.111 256.906L433.066 256.679L433.104 256.444L433.179 256.027L433.991 255.631L434.295 255.138L435.116 255.017L436.049 255.199L436.277 255.116L436.315 254.927L436.277 254.623L436.353 254.348L436.429 254.007L436.543 253.78L436.422 253.431L436.301 253.128L436.028 252.976L436.142 252.248L436.725 252.703L437.036 252.438L437.271 252.628L437.233 252.931L437.395 253.272L437.706 253.462L437.827 253.652L437.941 253.803L437.986 254.258L438.024 254.721L438.183 254.796L438.411 254.448L438.335 254.183V254.031L438.373 253.879L438.29 253.531L438.479 253.379L438.517 253.189L438.707 252.651L439.018 252.49L439.445 252.566L439.642 252.642L439.756 252.566L439.597 252.066L439.436 251.611L439.201 251.231L439.08 250.89L439.156 250.542L438.373 249.366L438.214 248.987L438.05 248.918H437.779L437.668 248.949L437.637 248.918H431.039ZM438.847 248.918L439.149 249.207L439.339 249.086L439.358 248.918H438.847ZM444.247 248.918L444.321 249.01L444.434 249.048L444.468 248.918H444.247ZM457.816 248.918L457.885 249.266L457.232 249.966L457.087 250.693L456.898 251.535L456.708 252.111L456.359 252.376L455.281 253L454.93 253.424L455.091 253.924L455.288 254.031L455.554 253.614L455.979 253.569L456.252 253.872L456.648 254.062L456.997 254.327L457.232 254.017L457.688 253.324L458.652 252.4L459.815 251.817L460.361 251.997L460.909 251.959L461.372 251.8L461.402 250.921L461.44 250.421L461.63 250.003L461.744 249.958L461.979 250.307L461.91 250.914L461.986 251.452L462.069 251.604H462.345L463.429 251.438L464.092 251.201L464.789 251.269V251.156L464.782 250.504L465.041 249.093L465.195 248.918H457.816ZM465.509 248.918L465.587 248.972L465.867 250.307L465.914 250.686L465.487 251.11L465.601 251.3L466.035 251.224H466.225L466.384 251.179H467.006L467.386 250.982L467.585 250.869L468.124 250.556L468.511 250.207L469.088 249.624L469.527 248.918H465.509ZM498.723 248.918L498.633 249.153L498.329 249.693L497.866 250.231L497.638 250.542L497.6 250.731L497.759 250.845L497.911 250.959L498.032 250.997L498.146 251.035L498.649 250.99L499.309 250.451L499.535 248.918H498.723ZM453.617 254.168L452.765 255.207L452.303 255.441L451.878 255.365L451.453 255.6L451.104 255.865L450.753 256.406L450.366 256.603L450.138 256.754L449.751 257.027L449.288 257.489H449.174L448.901 257.534L448.702 257.686L448.55 258.113L448.125 258.264L447.821 258.575L447.67 258.999L447.48 259.613L447.677 260.106L448.339 260.213L448.961 259.826L449.302 259.44L449.927 259.203L450.39 259.013L450.617 258.627V258.165L450.42 257.748L450.769 257.634L450.921 257.627L451.346 257.475L451.733 257.013L452.196 256.776L452.782 256.503L453.245 256.541L454.833 255.183L454.588 254.614L454.004 254.31L453.617 254.168ZM460.56 257.24L459.784 257.361L458.896 258.096L459.017 258.627L459.221 259.241L458.948 259.431L458.402 258.824L458.167 258.634L456.959 258.954L456.459 259.378L456.193 260.068L455.455 260.455L454.992 260.692L454.529 261.154L454.066 261.806L453.648 262.92L453.231 263.96L452.379 264.309L452.151 264.847L451.961 265.385L451.65 265.84L451.035 266.729L450.655 267.419L450.465 267.767V268.184L450.473 268.76L450.518 269.415L450.366 269.832L450.328 270.097L450.017 270.256L449.82 270.142L449.706 269.991L449.471 270.029L449.196 269.998L448.961 269.581L449.113 269.156L449.386 268.922L449.889 268.808L449.851 268.343L447.238 267.988L446.889 268.026L446.34 268.071L445.954 268.109L445.764 268.267L445.612 268.609L446.082 269.339L447.024 270.59L447.852 271.463L448.277 271.69L448.825 272.06L449.492 272.477L449.841 272.591L450.079 272.584L450.269 272.394L450.458 271.515L450.686 270.825L451.028 270.439L451.453 270.012L452.113 269.626L456.656 268.86L458.713 268.685L461.592 268.353L463.149 268.305L463.771 268.298L464.272 268.367L464.979 268.405L465.753 268.36L466.339 268.542L466.84 268.495L467.424 268.457L467.851 268.45L468.321 268.291L468.276 267.988L466.992 267.767L466.795 267.661L466.643 267.509L466.446 267.281L466.323 266.705L466.399 266.326L466.232 265.674L465.922 265.029L465.952 264.719L466.066 264.491L466.263 264.188L466.256 263.688L465.397 263.467L464.5 262.898L464.144 262.633L464.03 262.754L464.189 263.133L463.65 263.33L463.104 263.102L463.019 262.647L462.981 262.337L462.625 262.23L462.656 261.313L463.005 261.268L463.361 262.071L463.719 262.254L463.992 262.216L463.788 261.799L463.626 261.185L463.702 260.303L463.619 259.81L463.498 259.431L463.377 259.203L463.142 258.862L462.86 258.058L462.511 258.02L461.585 258.719L461.357 259.144L461.675 259.864L461.486 260.175L461.099 260.447L460.788 261.061L460.484 261.441L460.209 261.488V261.061L460.315 260.455L460.429 260.03L460.619 259.758L460.581 259.53L460.612 258.651L460.84 257.657L460.56 257.24ZM445.923 259.506L445.453 259.516H445.187L444.99 259.668L445.111 260.244L445.505 260.623L445.854 260.699L446.091 260.73L446.63 260.654L446.979 260.379L447.055 260.03L446.858 259.689L446.348 259.582L445.923 259.506ZM444.252 260.175L443.485 260.789L442.939 261.213L442.398 261.488L441.541 261.419L441.23 261.464L441.078 261.73L441.161 262.268L441.358 262.458L441.783 262.375H442.132L442.832 262.405L443.575 262.322L444.154 262.123L444.427 261.775L444.541 261.434L444.382 261.13L444.411 260.63L444.373 260.289L444.252 260.175ZM439.87 261.623L439.491 262.085L439.104 262.322L438.593 262.595L438.328 262.747L438.252 263.019L438.29 263.171L438.562 263.474L439.498 263.233L439.885 262.929L440.112 262.616L440.347 262.541L440.537 262.344L440.264 262.275L439.801 262.199L439.839 262.01L440.029 261.775L439.87 261.623ZM469.978 261.934L469.468 262.047L469.043 262.322L468.815 262.633L468.663 263.012V263.437L468.784 263.854L468.867 263.93L468.981 263.892L469.019 263.74L468.974 263.392V263.012L469.202 262.55L469.589 262.322L469.75 262.389L469.864 262.664L469.985 262.816L469.871 263.081L469.985 263.233L470.22 263.384L470.265 263.991L470.196 265.219L470.044 265.371L469.809 265.378L469.339 265.226L469.066 264.885V264.544L469.294 264.271L469.529 263.885L469.795 263.695L469.757 263.657H469.56L469.332 263.771L469.095 264.081L468.715 264.316L468.207 264.74L467.979 265.044L467.668 265.243L467.395 265.281L466.771 264.947H466.657L466.619 265.022L466.93 265.591L467.016 266.319L467.22 266.736L467.607 266.926L468.777 267.108L469.323 267.943H468.936L469.057 268.253L469.446 268.284L469.719 268.132L470.303 268.125L470.455 267.888L470.493 267.812L470.531 267.547L470.403 266.629L470.576 263.991L470.531 263.261L470.365 262.389L470.213 262.047L469.978 261.934ZM495.656 263.527L495.581 263.868V263.982L495.543 264.058L495.899 264.626L496.72 265.271L496.758 265.309L496.962 265.84L496.969 266.722L496.817 267.374L496.513 268.222L496.058 268.874L495.785 269.339L495.208 270.104L494.707 270.718L494.403 271.105L493.978 271.491L493.665 271.69L493.399 271.88L493.637 272.145L493.91 272.297L494.334 272.098L495.101 271.174L495.725 270.635L496.105 270.325L496.302 270.097L496.606 269.822L496.803 269.633L496.917 269.398L496.948 268.905L497.024 268.708L497.373 268.443L497.721 268.322L498.156 268.55L498.429 269.005L498.664 269.422L498.588 269.846L498.087 270.195L497.548 270.346L497.311 270.467L497.083 270.543L497.045 270.78L497.32 271.235L497.403 271.463L497.365 271.577H497.13L496.779 271.432L496.62 271.356L496.468 271.28L496.309 271.432L496.081 271.667L495.808 272.008L495.467 272.167L495.07 272.288L494.721 272.401L494.418 272.676L494.107 273.177L493.568 273.525L493.378 273.487L493.219 273.335L493.058 273.259L492.982 273.146L492.906 272.994L492.823 272.729L492.664 272.463L492.467 272.16L492.308 271.97L491.88 272.091L491.379 272.129L490.872 272.174L490.209 272.145L489.747 272.297L488.776 272.311L488.152 272.273L487.378 272.281L486.905 272.25L486.284 272.259L485.973 272.335L485.821 272.411L485.783 272.608L486.094 272.949L486.488 273.169L486.687 273.435L486.649 273.556V273.67L486.573 273.745L486.298 273.783L486.025 273.904L485.873 273.98H485.6L485.441 274.063L485.524 274.291L485.835 274.442L486.231 274.663L487.05 274.966L487.599 275.225L488.061 275.414L488.645 275.673L489.315 275.976L489.974 276.118L490.447 276.232L491.069 276.452L491.89 276.711L492.512 276.825L493.361 276.431L494.259 276.384L494.918 276.377L495.505 276.452L496.316 276.521L497.062 276.666L497.759 276.81L498.422 276.839L499.233 276.604L499.468 276.452L499.741 276.256L500.206 276.059L500.821 275.824L501.246 275.511L501.519 275.087L501.747 274.397L501.778 273.753L501.298 272.494L501.025 272.001L500.586 271.159L500.114 270.439L499.72 269.642L499.361 268.723L498.998 267.888L498.725 267.319L498.329 266.516L498.049 265.947L497.776 265.378L497.342 264.885L496.986 264.506L496.872 264.392L496.399 263.937L496.043 263.595L495.656 263.527ZM479.873 268.723L479.213 268.846L478.985 268.922L478.864 269.073L478.909 269.27L478.985 269.574L479.728 269.984L480.079 269.946L479.956 269.642L480.079 269.443L480.307 269.519L480.504 269.405L480.732 269.208L480.929 268.905L480.222 268.753L480.07 268.723H479.873ZM482.614 270.953L482.189 271.074L481.605 270.998L481.295 271.235L481.651 271.577L481.999 271.804L482.083 272.107L482.517 272.487L483.177 272.591L483.915 272.736L484.105 272.356L484.067 271.932L484.019 271.591L483.549 271.249L482.614 270.953ZM447.572 275.748L447.306 275.9L446.993 276.097L446.371 276.135L446.295 276.218L446.219 276.445L446.257 276.635L446.575 276.9L446.889 276.976L447.2 276.969L447.662 276.855L447.859 276.969L447.973 276.962L448.246 277L448.322 276.848L448.284 276.697L447.966 276.317L447.89 276.203L447.731 276.014L447.655 275.862L447.572 275.748Z" fill="white" stroke="white" stroke-width="10"/>
<g clip-path="url(#clip3_9_192)">
<path d="M450.604 142C439.657 142 430.751 150.922 430.751 161.888C430.751 172.443 448.764 197.104 449.531 198.149L450.247 199.124C450.33 199.239 450.464 199.306 450.604 199.306C450.746 199.306 450.879 199.239 450.963 199.124L451.679 198.149C452.446 197.104 470.458 172.443 470.458 161.888C470.458 150.922 461.551 142 450.604 142ZM450.604 154.764C454.526 154.764 457.716 157.959 457.716 161.888C457.716 165.815 454.526 169.012 450.604 169.012C446.684 169.012 443.492 165.815 443.492 161.888C443.492 157.959 446.684 154.764 450.604 154.764Z" fill="#FF8730"/>
</g>
</g>
<g clip-path="url(#clip4_9_192)">
<path d="M58.9041 299.651L58.8457 305.321L57.5813 305.34L56.3168 305.36L56.2195 306.428L56.1223 307.476L52.2316 308.409C42.1744 310.816 39.3148 311.516 38.381 311.787L37.35 312.079V378.277C37.35 436.999 37.3111 444.494 37.0582 444.494C36.8053 444.494 36.7664 441.95 36.7664 422.765V401.055L35.3658 400.686L33.9846 400.317L34.0041 399.016V397.715L32.7202 396.996C32.0004 396.588 30.7165 395.598 29.8605 394.783C29.0046 393.967 27.818 392.899 27.2149 392.394L26.1255 391.481H18.9473H11.7691L10.6992 392.18C10.1156 392.569 8.24813 393.85 6.57516 395.035L3.50156 397.171V398.2V399.21L1.75078 399.365L0 399.501V429.95C0 456.903 0.0389063 460.417 0.291797 460.417C0.447422 460.417 0.583594 460.553 0.583594 460.709C0.583594 460.961 14.512 461 124.811 461H249.039L248.922 460.262C248.864 459.874 248.708 458.67 248.591 457.602C248.475 456.534 248.3 455.563 248.202 455.446C248.105 455.33 248.008 453.854 247.988 452.145L247.93 449.058L245.79 447.951C244.623 447.349 243.631 446.727 243.592 446.553C243.534 446.281 242.464 446.242 233.574 446.203L223.614 446.145L223.575 425.464C223.516 405.909 223.497 404.783 223.186 404.647C222.991 404.57 219.606 403.54 215.638 402.336C211.689 401.152 208.324 400.084 208.187 399.987C208.032 399.831 207.351 399.851 206.048 399.987C205.016 400.103 198.772 400.647 192.197 401.191C185.622 401.754 180.116 402.239 180 402.278C179.805 402.336 179.747 407.812 179.747 428.862V455.369H179.261H178.774V440.941V426.532L176.537 424.299C175.312 423.075 174.3 421.969 174.3 421.833C174.3 421.638 173.561 421.58 171.188 421.58H168.075V411.56V401.56L167.453 401.307C167.102 401.152 166.305 400.938 165.702 400.802L164.593 400.55L164.535 399.462L164.476 398.394L163.017 397.559C162.22 397.113 161.208 396.355 160.78 395.87C160.352 395.404 159.282 394.394 158.387 393.637L156.773 392.258H152.979H149.205L149.167 352.12L149.108 311.982L147.649 311.632C144.809 310.952 127.69 306.972 126.445 306.719C125.667 306.544 125.142 306.506 125.084 306.622C125.006 306.739 124.305 306.991 123.508 307.185C122.71 307.399 118.392 308.525 113.898 309.71C109.404 310.875 105.572 311.904 105.397 311.962C105.066 312.098 105.047 313.885 105.047 345.595C105.047 377.422 105.027 379.092 104.716 378.956C104.522 378.879 103.938 378.704 103.413 378.549C102.888 378.413 102.382 378.218 102.304 378.141C102.226 378.063 101.137 375.616 99.8918 372.742C98.6468 369.849 97.3823 366.936 97.0711 366.276L96.5459 365.033L95.8261 367.15C95.437 368.296 94.3477 371.325 93.4139 373.888L91.702 378.529L89.6011 379.151C88.4534 379.5 87.4613 379.85 87.3834 379.927C87.3056 380.005 87.2278 382.491 87.1889 385.462L87.1305 390.879L86.0801 391.19C85.4576 391.365 84.9323 391.656 84.8156 391.87C84.6989 392.103 84.6211 395.695 84.6211 401.948C84.6211 408.123 84.5433 411.677 84.4266 411.677C84.3293 411.677 83.7652 411.463 83.1621 411.211L82.0922 410.725V361.344V311.962L72.9103 309.846C67.8525 308.68 63.3394 307.632 62.892 307.535C62.0749 307.341 62.0749 307.341 62.0166 306.35L61.9582 305.36L60.9466 305.302L59.9156 305.243V299.612V294H59.4293H58.943L58.9041 299.651Z" fill="white"/>
</g>
<defs>
<clipPath id="clip0_9_192">
<rect width="117" height="223" fill="white" transform="translate(14)"/>
</clipPath>
<clipPath id="clip1_9_192">
<rect width="57.2093" height="57.3061" fill="white" transform="translate(59.9535 56.902)"/>
</clipPath>
<clipPath id="clip2_9_192">
<rect width="226" height="138" fill="white" transform="translate(277 139)"/>
</clipPath>
<clipPath id="clip3_9_192">
<rect width="57.2093" height="57.3061" fill="white" transform="translate(422 142)"/>
</clipPath>
<clipPath id="clip4_9_192">
<rect width="249" height="167" fill="white" transform="translate(0 294)"/>
</clipPath>
</defs>
</svg>
